<?xml version="1.0" encoding="UTF-8"?>
<svg xmlns="http://www.w3.org/2000/svg" style="stroke-dasharray:none; shape-rendering:auto; font-family:'Arial'; text-rendering:auto; fill-opacity:1; color-interpolation:auto; color-rendering:auto; font-size:12; fill:black; stroke:black; image-rendering:auto; stroke-miterlimit:10; stroke-linecap:square; stroke-linejoin:miter; font-style:normal; stroke-width:1; stroke-dashoffset:0; font-weight:normal; stroke-opacity:1;" contentScriptType="text/ecmascript" preserveAspectRatio="xMidYMid meet" zoomAndPan="magnify" version="1.0" contentStyleType="text/css" xml:xlink="http://www.w3.org/1999/xlink" width="1306" height="495"><rect x="20" y="24" width="1286" height="471" ry="0" rx="0" style="stroke:#000000; fill:#FFFFFF" /><rect x="50" y="24" width="1256" height="157" ry="0" rx="0" style="stroke:#000000; fill:#9FC1C6" /><g componentSequence="1"><text x="-102" y="58" transform="rotate(270)" text-anchor="middle" style="font-weight:bold;font-size:10px;stroke:none; fill:#434343"><tspan dy="14" x="-102">Solicitante</tspan></text></g><rect x="50" y="338" width="1256" height="157" ry="0" rx="0" style="stroke:#000000; fill:#9EAD93" /><g componentSequence="2"><text x="-416" y="58" transform="rotate(270)" text-anchor="middle" style="font-weight:bold;font-size:10px;stroke:none; fill:#434343"><tspan dy="14" x="-416">Tecnologia</tspan></text></g><rect x="50" y="181" width="1256" height="157" ry="0" rx="0" style="stroke:#000000; fill:#E8E6A7" /><g componentSequence="3"><text x="-259" y="58" transform="rotate(270)" text-anchor="middle" style="font-weight:bold;font-size:10px;stroke:none; fill:#434343"><tspan dy="14" x="-259">Gerente</tspan></text></g><g componentSequence="27"><text x="-259" y="28" transform="rotate(270)" text-anchor="middle" style="font-weight:bold;font-size:10px;stroke:none; fill:#434343"><tspan dy="14" x="-259">Pool</tspan></text></g><g sequence="4"><ellipse cx="145" cy="73" rx="17" ry="17" stroke-width="1" style="fill:url(#linearGradient66FF6696FF96B6FFB6_1721926300);" stroke="336633" /></g><g sequence="5"><rect x="297" y="195" width="106" height="60" ry="5" rx="5" style="fill:url(#linearGradientF8FBFEEDF5FCDEEDFAD4E7F8E2E5E9_1751478328);" stroke="191970" /></g><g componentSequence="5"><text x="350" y="214" text-anchor="middle" style="font-weight:bold;font-size:10px;stroke:none; fill:#333399"><tspan dy="14" x="350">Análise</tspan></text></g><g sequence="7"><rect x="544" y="199" width="106" height="60" ry="5" rx="5" style="fill:url(#linearGradientF8FBFEEDF5FCDEEDFAD4E7F8E2E5E9_1817897452);" stroke="191970" /></g><g componentSequence="7"><text x="597" y="218" text-anchor="middle" style="font-weight:bold;font-size:10px;stroke:none; fill:#333399"><tspan dy="14" x="597">Atendimento</tspan></text></g><g sequence="9"><rect x="788" y="51" width="106" height="60" ry="5" rx="5" style="fill:url(#linearGradientF8FBFEEDF5FCDEEDFAD4E7F8E2E5E9_693664259);" stroke="191970" /></g><g componentSequence="9"><text x="841" y="70" text-anchor="middle" style="font-weight:bold;font-size:10px;stroke:none; fill:#333399"><tspan dy="14" x="841">Validação</tspan></text></g><g sequence="11"><ellipse cx="1097" cy="87" rx="17" ry="17" stroke-width="3" style="fill:url(#linearGradientFF6666FF9696FFB6B6_1536998358);" stroke="993333" /></g><g sequence="13"><rect x="545" y="50" width="106" height="76" ry="5" rx="5" style="fill:url(#linearGradientF8FBFEEDF5FCDEEDFAD4E7F8E2E5E9_414970925);" stroke="191970" /></g><g componentSequence="13"><text x="598" y="65" text-anchor="middle" style="font-weight:bold;font-size:10px;stroke:none; fill:#333399"><tspan dy="14" x="598">Pendência ao</tspan><tspan dy="14" x="598">solicitante</tspan></text></g><g sequence="16"><rect x="293" y="357" width="106" height="60" ry="5" rx="5" style="fill:url(#linearGradientF8FBFEEDF5FCDEEDFAD4E7F8E2E5E9_596994911);" stroke="191970" /></g><g componentSequence="16"><text x="346" y="376" text-anchor="middle" style="font-weight:bold;font-size:10px;stroke:none; fill:#333399"><tspan dy="14" x="346">Autorização</tspan></text></g><g sequence="18"><ellipse cx="603" cy="386" rx="17" ry="17" stroke-width="3" style="fill:url(#linearGradientFF6666FF9696FFB6B6_1232569676);" stroke="993333" /></g><g sequence="22"><rect x="786" y="199" width="106" height="92" ry="5" rx="5" style="fill:url(#linearGradientF8FBFEEDF5FCDEEDFAD4E7F8E2E5E9_1997260223);" stroke="191970" /></g><g componentSequence="22"><text x="839" y="214" text-anchor="middle" style="font-weight:bold;font-size:10px;stroke:none; fill:#333399"><tspan dy="14" x="839">Em tratativas</tspan><tspan dy="14" x="839">com terceiros</tspan></text></g><g sequence="25"><ellipse cx="728" cy="276" rx="17" ry="17" stroke-width="3" style="fill:url(#linearGradientFF6666FF9696FFB6B6_819351023);" stroke="993333" /></g><g componentSequence="6"><text x="246" y="140" style="font-size:10px;font-weight:none;stroke:none; fill:#333399" text-anchor="left" /></g><g componentSequence="8"><text x="483" y="227" style="font-size:10px;font-weight:none;stroke:none; fill:#333399" text-anchor="left" /></g><g componentSequence="10"><text x="729" y="155" style="font-size:10px;font-weight:none;stroke:none; fill:#333399" text-anchor="left" /></g><g componentSequence="12"><text x="997" y="85" style="font-size:10px;font-weight:none;stroke:none; fill:#333399" text-anchor="left" /></g><g componentSequence="14"><text x="607" y="162" style="font-size:10px;font-weight:none;stroke:none; fill:#333399" text-anchor="left" /></g><g componentSequence="15"><text x="484" y="156" style="font-size:10px;font-weight:none;stroke:none; fill:#333399" text-anchor="left" /></g><g componentSequence="17"><text x="358" y="306" style="font-size:10px;font-weight:none;stroke:none; fill:#333399" text-anchor="left" /></g><g componentSequence="19"><text x="502" y="386" style="font-size:10px;font-weight:none;stroke:none; fill:#333399" text-anchor="left" /></g><g componentSequence="20"><text x="358" y="306" style="font-size:10px;font-weight:none;stroke:none; fill:#333399" text-anchor="left" /></g><g componentSequence="21"><text x="729" y="155" style="font-size:10px;font-weight:none;stroke:none; fill:#333399" text-anchor="left" /></g><g componentSequence="23"><text x="728" y="237" style="font-size:10px;font-weight:none;stroke:none; fill:#333399" text-anchor="left" /></g><g componentSequence="24"><text x="728" y="237" style="font-size:10px;font-weight:none;stroke:none; fill:#333399" text-anchor="left" /></g><g componentSequence="26"><text x="690" y="259" style="font-size:10px;font-weight:none;stroke:none; fill:#333399" text-anchor="left" /></g><path style="fill:none; stroke:#000000;stroke-width:1" d="M159.0 83.0 L308.0 194.0" /><polygon style="fill:#000000; stroke:#000000;" points=" 303 184 308 194 297 192 302 189" /><path style="fill:none; stroke:#000000;stroke-width:1" d="M403.0 225.0 L543.0 228.0" /><polygon style="fill:#000000; stroke:#000000;" points=" 533 223 543 228 533 233 535 228" /><path style="fill:none; stroke:#000000;stroke-width:1" d="M349.0 255.0 L346.0 356.0" /><polygon style="fill:#000000; stroke:#000000;" points=" 351 346 346 356 341 346 346 348" /><path style="fill:none; stroke:#000000;stroke-width:1" d="M544.0 117.0 L403.0 195.0" /><polygon style="fill:#000000; stroke:#000000;" points=" 414 195 403 195 409 186 410 191" /><path style="fill:none; stroke:#000000;stroke-width:1" d="M346.0 356.0 L349.0 255.0" /><polygon style="fill:#000000; stroke:#000000;" points=" 344 265 349 255 354 265 349 263" /><path style="fill:none; stroke:#000000;stroke-width:1" d="M647.0 198.0 L790.0 111.0" /><polygon style="fill:#000000; stroke:#000000;" points=" 779 112 790 111 784 120 783 115" /><path style="fill:none; stroke:#000000;stroke-width:1" d="M597.0 198.0 L597.0 126.0" /><polygon style="fill:#000000; stroke:#000000;" points=" 592 136 597 126 602 136 597 134" /><path style="fill:none; stroke:#000000;stroke-width:1" d="M650.0 232.0 L785.0 241.0" /><polygon style="fill:#000000; stroke:#000000;" points=" 775 235 785 241 775 245 777 240" /><path style="fill:none; stroke:#000000;stroke-width:1" d="M650.0 248.0 L712.0 270.0" /><polygon style="fill:#000000; stroke:#000000;" points=" 704 262 712 270 701 271 704 267" /><path style="fill:none; stroke:#000000;stroke-width:1" d="M790.0 111.0 L647.0 198.0" /><polygon style="fill:#000000; stroke:#000000;" points=" 658 197 647 198 653 189 654 194" /><path style="fill:none; stroke:#000000;stroke-width:1" d="M785.0 241.0 L650.0 232.0" /><polygon style="fill:#000000; stroke:#000000;" points=" 660 238 650 232 660 228 658 233" /><path style="fill:none; stroke:#000000;stroke-width:1" d="M894.0 82.0 L1080.0 87.0" /><polygon style="fill:#000000; stroke:#000000;" points=" 1070 82 1080 87 1070 92 1072 87" /><path style="fill:none; stroke:#000000;stroke-width:1" d="M399.0 386.0 L586.0 386.0" /><polygon style="fill:#000000; stroke:#000000;" points=" 576 381 586 386 576 391 578 386" /><defs><linearGradient xmlns:xlink="http://www.w3.org/1999/xlink" xlink:href="#linearGradient66FF6696FF96B6FFB6" id="linearGradient66FF6696FF96B6FFB6_1721926300" x1="0" y1="56.0" x2="0" y2="91.0" gradientUnits="userSpaceOnUse" xlink:type="simple" xlink:actuate="onLoad" xlink:show="other" /><linearGradient id="linearGradient66FF6696FF96B6FFB6"><stop style="stop-color:#66FF66;stop-opacity:1;" offset="0.0" id="stop66FF66" /><stop style="stop-color:#96FF96;stop-opacity:1;" offset="0.5" id="stop96FF96" /><stop style="stop-color:#B6FFB6;stop-opacity:1;" offset="1.0" id="stopB6FFB6" /></linearGradient><linearGradient xmlns:xlink="http://www.w3.org/1999/xlink" xlink:href="#linearGradientF8FBFEEDF5FCDEEDFAD4E7F8E2E5E9" id="linearGradientF8FBFEEDF5FCDEEDFAD4E7F8E2E5E9_1751478328" x1="0" y1="195.0" x2="0" y2="301.0" gradientUnits="userSpaceOnUse" xlink:type="simple" xlink:actuate="onLoad" xlink:show="other" /><linearGradient id="linearGradientF8FBFEEDF5FCDEEDFAD4E7F8E2E5E9"><stop style="stop-color:#F8FBFE;stop-opacity:1;" offset="0.0" id="stopF8FBFE" /><stop style="stop-color:#EDF5FC;stop-opacity:1;" offset="0.25" id="stopEDF5FC" /><stop style="stop-color:#DEEDFA;stop-opacity:1;" offset="0.5" id="stopDEEDFA" /><stop style="stop-color:#D4E7F8;stop-opacity:1;" offset="0.75" id="stopD4E7F8" /><stop style="stop-color:#E2E5E9;stop-opacity:1;" offset="1.0" id="stopE2E5E9" /></linearGradient><linearGradient xmlns:xlink="http://www.w3.org/1999/xlink" xlink:href="#linearGradientF8FBFEEDF5FCDEEDFAD4E7F8E2E5E9" id="linearGradientF8FBFEEDF5FCDEEDFAD4E7F8E2E5E9_1817897452" x1="0" y1="199.0" x2="0" y2="305.0" gradientUnits="userSpaceOnUse" xlink:type="simple" xlink:actuate="onLoad" xlink:show="other" /><linearGradient xmlns:xlink="http://www.w3.org/1999/xlink" xlink:href="#linearGradientF8FBFEEDF5FCDEEDFAD4E7F8E2E5E9" id="linearGradientF8FBFEEDF5FCDEEDFAD4E7F8E2E5E9_693664259" x1="0" y1="51.0" x2="0" y2="157.0" gradientUnits="userSpaceOnUse" xlink:type="simple" xlink:actuate="onLoad" xlink:show="other" /><linearGradient xmlns:xlink="http://www.w3.org/1999/xlink" xlink:href="#linearGradientFF6666FF9696FFB6B6" id="linearGradientFF6666FF9696FFB6B6_1536998358" x1="0" y1="70.0" x2="0" y2="105.0" gradientUnits="userSpaceOnUse" xlink:type="simple" xlink:actuate="onLoad" xlink:show="other" /><linearGradient id="linearGradientFF6666FF9696FFB6B6"><stop style="stop-color:#FF6666;stop-opacity:1;" offset="0.0" id="stopFF6666" /><stop style="stop-color:#FF9696;stop-opacity:1;" offset="0.5" id="stopFF9696" /><stop style="stop-color:#FFB6B6;stop-opacity:1;" offset="1.0" id="stopFFB6B6" /></linearGradient><linearGradient xmlns:xlink="http://www.w3.org/1999/xlink" xlink:href="#linearGradientF8FBFEEDF5FCDEEDFAD4E7F8E2E5E9" id="linearGradientF8FBFEEDF5FCDEEDFAD4E7F8E2E5E9_414970925" x1="0" y1="50.0" x2="0" y2="156.0" gradientUnits="userSpaceOnUse" xlink:type="simple" xlink:actuate="onLoad" xlink:show="other" /><linearGradient xmlns:xlink="http://www.w3.org/1999/xlink" xlink:href="#linearGradientF8FBFEEDF5FCDEEDFAD4E7F8E2E5E9" id="linearGradientF8FBFEEDF5FCDEEDFAD4E7F8E2E5E9_596994911" x1="0" y1="357.0" x2="0" y2="463.0" gradientUnits="userSpaceOnUse" xlink:type="simple" xlink:actuate="onLoad" xlink:show="other" /><linearGradient xmlns:xlink="http://www.w3.org/1999/xlink" xlink:href="#linearGradientFF6666FF9696FFB6B6" id="linearGradientFF6666FF9696FFB6B6_1232569676" x1="0" y1="369.0" x2="0" y2="404.0" gradientUnits="userSpaceOnUse" xlink:type="simple" xlink:actuate="onLoad" xlink:show="other" /><linearGradient xmlns:xlink="http://www.w3.org/1999/xlink" xlink:href="#linearGradientF8FBFEEDF5FCDEEDFAD4E7F8E2E5E9" id="linearGradientF8FBFEEDF5FCDEEDFAD4E7F8E2E5E9_1997260223" x1="0" y1="199.0" x2="0" y2="305.0" gradientUnits="userSpaceOnUse" xlink:type="simple" xlink:actuate="onLoad" xlink:show="other" /><linearGradient xmlns:xlink="http://www.w3.org/1999/xlink" xlink:href="#linearGradientFF6666FF9696FFB6B6" id="linearGradientFF6666FF9696FFB6B6_819351023" x1="0" y1="259.0" x2="0" y2="294.0" gradientUnits="userSpaceOnUse" xlink:type="simple" xlink:actuate="onLoad" xlink:show="other" /></defs></svg>
