<?xml version="1.0" encoding="UTF-8"?>
<svg xmlns="http://www.w3.org/2000/svg" style="stroke-dasharray:none; shape-rendering:auto; font-family:'Arial'; text-rendering:auto; fill-opacity:1; color-interpolation:auto; color-rendering:auto; font-size:12; fill:black; stroke:black; image-rendering:auto; stroke-miterlimit:10; stroke-linecap:square; stroke-linejoin:miter; font-style:normal; stroke-width:1; stroke-dashoffset:0; font-weight:normal; stroke-opacity:1;" contentScriptType="text/ecmascript" preserveAspectRatio="xMidYMid meet" zoomAndPan="magnify" version="1.0" contentStyleType="text/css" xml:xlink="http://www.w3.org/1999/xlink" width="1381" height="661"><rect x="10" y="10" width="1371" height="651" ry="0" rx="0" style="stroke:#000000; fill:#FFFFFF" /><rect x="40" y="335" width="1341" height="326" ry="0" rx="0" style="stroke:#000000; fill:#0080C0" /><g componentSequence="3"><text x="-498" y="48" transform="rotate(270)" text-anchor="middle" style="font-weight:bold;font-size:10px;stroke:none; fill:#434343"><tspan dy="14" x="-498">Marketing</tspan></text></g><rect x="40" y="10" width="1341" height="325" ry="0" rx="0" style="stroke:#000000; fill:#11864B" /><g componentSequence="2"><text x="-172" y="48" transform="rotate(270)" text-anchor="middle" style="font-weight:bold;font-size:10px;stroke:none; fill:#434343"><tspan dy="14" x="-172">Solicitante</tspan></text></g><g componentSequence="1"><text x="-335" y="18" transform="rotate(270)" text-anchor="middle" style="font-weight:bold;font-size:10px;stroke:none; fill:#434343"><tspan dy="14" x="-335">Solicitação de Assinatura</tspan></text></g><g sequence="4"><ellipse cx="167" cy="167" rx="17" ry="17" stroke-width="1" style="fill:url(#linearGradient66FF6696FF96B6FFB6_926432733);" stroke="336633" /></g><g sequence="5"><rect x="280" y="501" width="106" height="60" ry="5" rx="5" style="fill:url(#linearGradientF8FBFEEDF5FCDEEDFAD4E7F8E2E5E9_973063498);" stroke="191970" /></g><g componentSequence="5"><text x="333" y="520" text-anchor="middle" style="font-weight:bold;font-size:10px;stroke:none; fill:#333399"><tspan dy="14" x="333">Triagem</tspan></text></g><rect x="210" y="20" width="105" height="55" ry="5" rx="5" style="stroke:none; fill:#FFFFE0" /><g componentSequence="7"><text x="220" y="33" text-anchor="left" style="font-weight:bold;font-size:10px;stroke:none; fill:#000000"><tspan dy="14" x="220">Início</tspan></text></g><path style="fill:none; stroke-width:1; stroke:#000000;" d="M230.0 20.0 L210.0 20.0 L210.0 75.0 L230.0 75.0" /><g sequence="9"><rect x="280" y="174" width="106" height="92" ry="5" rx="5" style="fill:url(#linearGradientF8FBFEEDF5FCDEEDFAD4E7F8E2E5E9_1036015277);" stroke="191970" /></g><g componentSequence="9"><text x="333" y="189" text-anchor="middle" style="font-weight:bold;font-size:10px;stroke:none; fill:#333399"><tspan dy="14" x="333">Pendência ao</tspan><tspan dy="14" x="333">Solicitante</tspan></text></g><g sequence="13"><rect x="720" y="490" width="106" height="76" ry="5" rx="5" style="fill:url(#linearGradientF8FBFEEDF5FCDEEDFAD4E7F8E2E5E9_2026033009);" stroke="191970" /></g><g componentSequence="13"><text x="773" y="505" text-anchor="middle" style="font-weight:bold;font-size:10px;stroke:none; fill:#333399"><tspan dy="14" x="773">Em</tspan><tspan dy="14" x="773">Atendimento</tspan></text></g><g sequence="15"><rect x="720" y="174" width="106" height="92" ry="5" rx="5" style="fill:url(#linearGradientF8FBFEEDF5FCDEEDFAD4E7F8E2E5E9_249746273);" stroke="191970" /></g><g componentSequence="15"><text x="773" y="189" text-anchor="middle" style="font-weight:bold;font-size:10px;stroke:none; fill:#333399"><tspan dy="14" x="773">Pendência ao</tspan><tspan dy="14" x="773">Solicitante</tspan></text></g><g sequence="22"><rect x="1060" y="190" width="106" height="60" ry="5" rx="5" style="fill:url(#linearGradientF8FBFEEDF5FCDEEDFAD4E7F8E2E5E9_1232114274);" stroke="191970" /></g><g componentSequence="22"><text x="1113" y="209" text-anchor="middle" style="font-weight:bold;font-size:10px;stroke:none; fill:#333399"><tspan dy="14" x="1113">Validação</tspan></text></g><g sequence="24"><ellipse cx="1347" cy="337" rx="17" ry="17" stroke-width="3" style="fill:url(#linearGradientFF6666FF9696FFB6B6_1991954655);" stroke="993333" /></g><g componentSequence="6"><text x="177" y="414" style="font-size:10px;font-weight:none;stroke:none; fill:#333399" text-anchor="left" /></g><g componentSequence="8"><text x="177" y="78" style="font-size:10px;font-weight:none;stroke:none; fill:#333399" text-anchor="left" /></g><g componentSequence="10"><text x="241" y="385" style="font-size:10px;font-weight:none;stroke:none; fill:#333399" text-anchor="left"><tspan dy="14" x="241">Pendência ao</tspan><tspan dy="14" x="241">Solicitante</tspan></text></g><g componentSequence="14"><text x="563" y="529" style="font-size:10px;font-weight:none;stroke:none; fill:#333399" text-anchor="left" /></g><g componentSequence="16"><text x="670" y="384" style="font-size:10px;font-weight:none;stroke:none; fill:#333399" text-anchor="left"><tspan dy="14" x="670">Pendência ao</tspan><tspan dy="14" x="670">Solicitante</tspan></text></g><g componentSequence="18"><text x="426" y="375" style="font-size:10px;font-weight:none;stroke:none; fill:#333399" text-anchor="left"><tspan dy="14" x="426">Triagem</tspan></text></g><g componentSequence="21"><text x="869" y="370" style="font-size:10px;font-weight:none;stroke:none; fill:#333399" text-anchor="left"><tspan dy="14" x="869">Atendimento</tspan></text></g><g componentSequence="23"><text x="1118" y="527" style="font-size:10px;font-weight:none;stroke:none; fill:#333399" text-anchor="left"><tspan dy="14" x="1118">Validação</tspan></text></g><g componentSequence="25"><text x="1195" y="230" style="font-size:10px;font-weight:none;stroke:none; fill:#333399" text-anchor="left"><tspan dy="14" x="1195">Finalizar atendimento</tspan></text></g><g componentSequence="26"><text x="1316" y="220" style="font-size:10px;font-weight:none;stroke:none; fill:#333399" text-anchor="left" /></g><path style="fill:none; stroke:#000000;stroke-width:1" d="M167.0 185.0 L167.0 530.0 L279.0 530.0" /><polygon style="fill:#000000; stroke:#000000;" points=" 269 525 279 530 269 535 271 530" /><path style="fill:none; stroke:#000000;stroke-dasharray:2" d="M209.0 48.0 L167.0 48.0 L167.0 149.0" /><path style="fill:none; stroke:#000000;stroke-width:1" d="M279.0 530.0 L231.0 530.0 L231.0 395.0 L231.0 220.0 L279.0 220.0" /><polygon style="fill:#000000; stroke:#000000;" points=" 269 215 279 220 269 225 271 220" /><path style="fill:none; stroke:#000000;stroke-width:1" d="M386.0 530.0 L719.0 528.0" /><polygon style="fill:#000000; stroke:#000000;" points=" 709 523 719 528 709 533 711 528" /><path style="fill:none; stroke:#000000;stroke-width:1" d="M386.0 220.0 L416.0 220.0 L416.0 281.0 L416.0 394.0 L416.0 529.0 L386.0 530.0" /><polygon style="fill:#000000; stroke:#000000;" points=" 396 535 386 530 396 525 394 530" /><path style="fill:none; stroke:#000000;stroke-width:1" d="M719.0 527.0 L660.0 527.0 L660.0 388.0 L660.0 220.0 L690.0 220.0 L719.0 220.0" /><polygon style="fill:#000000; stroke:#000000;" points=" 709 215 719 220 709 225 711 220" /><path style="fill:none; stroke:#000000;stroke-width:1" d="M826.0 527.0 L1112.0 527.0 L1112.0 250.0" /><polygon style="fill:#000000; stroke:#000000;" points=" 1107 260 1112 250 1117 260 1112 258" /><path style="fill:none; stroke:#000000;stroke-width:1" d="M826.0 220.0 L859.0 220.0 L859.0 393.0 L859.0 520.0 L826.0 523.0" /><polygon style="fill:#000000; stroke:#000000;" points=" 836 527 826 523 836 517 834 522" /><path style="fill:none; stroke:#000000;stroke-width:1" d="M1166.0 220.0 L1347.0 220.0 L1347.0 319.0" /><polygon style="fill:#000000; stroke:#000000;" points=" 1352 309 1347 319 1342 309 1347 311" /><path style="fill:none; stroke:#009600;stroke-width:1" d="M1166.0 220.0 L1347.0 220.0 L1347.0 319.0" /><polygon style="fill:#009600; stroke:#009600;" points=" 1352 309 1347 319 1342 309 1347 311" /><defs><linearGradient xmlns:xlink="http://www.w3.org/1999/xlink" xlink:href="#linearGradient66FF6696FF96B6FFB6" id="linearGradient66FF6696FF96B6FFB6_926432733" x1="0" y1="150.0" x2="0" y2="185.0" gradientUnits="userSpaceOnUse" xlink:type="simple" xlink:actuate="onLoad" xlink:show="other" /><linearGradient id="linearGradient66FF6696FF96B6FFB6"><stop style="stop-color:#66FF66;stop-opacity:1;" offset="0.0" id="stop66FF66" /><stop style="stop-color:#96FF96;stop-opacity:1;" offset="0.5" id="stop96FF96" /><stop style="stop-color:#B6FFB6;stop-opacity:1;" offset="1.0" id="stopB6FFB6" /></linearGradient><linearGradient xmlns:xlink="http://www.w3.org/1999/xlink" xlink:href="#linearGradientF8FBFEEDF5FCDEEDFAD4E7F8E2E5E9" id="linearGradientF8FBFEEDF5FCDEEDFAD4E7F8E2E5E9_973063498" x1="0" y1="501.0" x2="0" y2="607.0" gradientUnits="userSpaceOnUse" xlink:type="simple" xlink:actuate="onLoad" xlink:show="other" /><linearGradient id="linearGradientF8FBFEEDF5FCDEEDFAD4E7F8E2E5E9"><stop style="stop-color:#F8FBFE;stop-opacity:1;" offset="0.0" id="stopF8FBFE" /><stop style="stop-color:#EDF5FC;stop-opacity:1;" offset="0.25" id="stopEDF5FC" /><stop style="stop-color:#DEEDFA;stop-opacity:1;" offset="0.5" id="stopDEEDFA" /><stop style="stop-color:#D4E7F8;stop-opacity:1;" offset="0.75" id="stopD4E7F8" /><stop style="stop-color:#E2E5E9;stop-opacity:1;" offset="1.0" id="stopE2E5E9" /></linearGradient><linearGradient xmlns:xlink="http://www.w3.org/1999/xlink" xlink:href="#linearGradientF8FBFEEDF5FCDEEDFAD4E7F8E2E5E9" id="linearGradientF8FBFEEDF5FCDEEDFAD4E7F8E2E5E9_1036015277" x1="0" y1="174.0" x2="0" y2="280.0" gradientUnits="userSpaceOnUse" xlink:type="simple" xlink:actuate="onLoad" xlink:show="other" /><linearGradient xmlns:xlink="http://www.w3.org/1999/xlink" xlink:href="#linearGradientF8FBFEEDF5FCDEEDFAD4E7F8E2E5E9" id="linearGradientF8FBFEEDF5FCDEEDFAD4E7F8E2E5E9_2026033009" x1="0" y1="490.0" x2="0" y2="596.0" gradientUnits="userSpaceOnUse" xlink:type="simple" xlink:actuate="onLoad" xlink:show="other" /><linearGradient xmlns:xlink="http://www.w3.org/1999/xlink" xlink:href="#linearGradientF8FBFEEDF5FCDEEDFAD4E7F8E2E5E9" id="linearGradientF8FBFEEDF5FCDEEDFAD4E7F8E2E5E9_249746273" x1="0" y1="174.0" x2="0" y2="280.0" gradientUnits="userSpaceOnUse" xlink:type="simple" xlink:actuate="onLoad" xlink:show="other" /><linearGradient xmlns:xlink="http://www.w3.org/1999/xlink" xlink:href="#linearGradientF8FBFEEDF5FCDEEDFAD4E7F8E2E5E9" id="linearGradientF8FBFEEDF5FCDEEDFAD4E7F8E2E5E9_1232114274" x1="0" y1="190.0" x2="0" y2="296.0" gradientUnits="userSpaceOnUse" xlink:type="simple" xlink:actuate="onLoad" xlink:show="other" /><linearGradient xmlns:xlink="http://www.w3.org/1999/xlink" xlink:href="#linearGradientFF6666FF9696FFB6B6" id="linearGradientFF6666FF9696FFB6B6_1991954655" x1="0" y1="320.0" x2="0" y2="355.0" gradientUnits="userSpaceOnUse" xlink:type="simple" xlink:actuate="onLoad" xlink:show="other" /><linearGradient id="linearGradientFF6666FF9696FFB6B6"><stop style="stop-color:#FF6666;stop-opacity:1;" offset="0.0" id="stopFF6666" /><stop style="stop-color:#FF9696;stop-opacity:1;" offset="0.5" id="stopFF9696" /><stop style="stop-color:#FFB6B6;stop-opacity:1;" offset="1.0" id="stopFFB6B6" /></linearGradient></defs></svg>
