<?xml version="1.0" encoding="UTF-8"?>
<svg xmlns="http://www.w3.org/2000/svg" style="stroke-dasharray:none; shape-rendering:auto; font-family:'Arial'; text-rendering:auto; fill-opacity:1; color-interpolation:auto; color-rendering:auto; font-size:12; fill:black; stroke:black; image-rendering:auto; stroke-miterlimit:10; stroke-linecap:square; stroke-linejoin:miter; font-style:normal; stroke-width:1; stroke-dashoffset:0; font-weight:normal; stroke-opacity:1;" contentScriptType="text/ecmascript" preserveAspectRatio="xMidYMid meet" zoomAndPan="magnify" version="1.0" contentStyleType="text/css" xml:xlink="http://www.w3.org/1999/xlink" width="1381" height="522"><rect x="0" y="340" width="1381" height="182" ry="0" rx="0" style="stroke:#000000; fill:#82B0B7" /><g componentSequence="3"><text x="-431" y="8" transform="rotate(270)" text-anchor="middle" style="font-weight:bold;font-size:10px;stroke:none; fill:#434343"><tspan dy="14" x="-431">Gerente</tspan></text></g><rect x="0" y="122" width="1381" height="219" ry="0" rx="0" style="stroke:#000000; fill:#E3AAB5" /><g componentSequence="1"><text x="-231" y="8" transform="rotate(270)" text-anchor="middle" style="font-weight:bold;font-size:10px;stroke:none; fill:#434343"><tspan dy="14" x="-231">Tecnologia</tspan></text></g><rect x="0" y="1" width="1381" height="121" ry="0" rx="0" style="stroke:#000000; fill:#9FC1C6" /><g componentSequence="2"><text x="-61" y="8" transform="rotate(270)" text-anchor="middle" style="font-weight:bold;font-size:10px;stroke:none; fill:#434343"><tspan dy="14" x="-61">Solicitante</tspan></text></g><g sequence="3"><ellipse cx="111" cy="61" rx="17" ry="17" stroke-width="1" style="fill:url(#linearGradient66FF6696FF96B6FFB6_1047326029);" stroke="336633" /></g><g sequence="4"><rect x="60" y="200" width="106" height="60" ry="5" rx="5" style="fill:url(#linearGradientF8FBFEEDF5FCDEEDFAD4E7F8E2E5E9_816514288);" stroke="191970" /></g><g componentSequence="4"><text x="113" y="219" text-anchor="middle" style="font-weight:bold;font-size:10px;stroke:none; fill:#333399"><tspan dy="14" x="113">Triagem</tspan></text></g><g sequence="6"><rect x="650" y="200" width="106" height="60" ry="5" rx="5" style="fill:url(#linearGradientF8FBFEEDF5FCDEEDFAD4E7F8E2E5E9_882148925);" stroke="191970" /></g><g componentSequence="6"><text x="703" y="219" text-anchor="middle" style="font-weight:bold;font-size:10px;stroke:none; fill:#333399"><tspan dy="14" x="703">Atendimento</tspan></text></g><g sequence="8"><rect x="650" y="25" width="106" height="76" ry="5" rx="5" style="fill:url(#linearGradientF8FBFEEDF5FCDEEDFAD4E7F8E2E5E9_1905659595);" stroke="191970" /></g><g componentSequence="8"><text x="703" y="40" text-anchor="middle" style="font-weight:bold;font-size:10px;stroke:none; fill:#333399"><tspan dy="14" x="703">Pendência ao</tspan><tspan dy="14" x="703">solicitante</tspan></text></g><g sequence="12"><rect x="60" y="370" width="106" height="60" ry="5" rx="5" style="fill:url(#linearGradientF8FBFEEDF5FCDEEDFAD4E7F8E2E5E9_675906353);" stroke="191970" /></g><g componentSequence="12"><text x="113" y="389" text-anchor="middle" style="font-weight:bold;font-size:10px;stroke:none; fill:#333399"><tspan dy="14" x="113">Autorização</tspan></text></g><g sequence="15"><ellipse cx="1147" cy="227" rx="17" ry="17" stroke-width="3" style="fill:url(#linearGradientFF6666FF9696FFB6B6_1085120076);" stroke="993333" /></g><g sequence="17"><ellipse cx="707" cy="397" rx="17" ry="17" stroke-width="3" style="fill:url(#linearGradientFF6666FF9696FFB6B6_1352158474);" stroke="993333" /></g><g sequence="19"><rect x="890" y="19" width="106" height="60" ry="5" rx="5" style="fill:url(#linearGradientF8FBFEEDF5FCDEEDFAD4E7F8E2E5E9_297398660);" stroke="191970" /></g><g componentSequence="19"><text x="943" y="38" text-anchor="middle" style="font-weight:bold;font-size:10px;stroke:none; fill:#333399"><tspan dy="14" x="943">Validação</tspan></text></g><g sequence="23"><ellipse cx="1097" cy="47" rx="17" ry="17" stroke-width="3" style="fill:url(#linearGradientFF6666FF9696FFB6B6_1963833481);" stroke="993333" /></g><g sequence="26"><rect x="900" y="270" width="106" height="60" ry="5" rx="5" style="fill:url(#linearGradientF8FBFEEDF5FCDEEDFAD4E7F8E2E5E9_1509824410);" stroke="191970" /></g><g componentSequence="26"><text x="953" y="289" text-anchor="middle" style="font-weight:bold;font-size:10px;stroke:none; fill:#333399"><tspan dy="14" x="953">Backlog</tspan></text></g><g componentSequence="5"><text x="122" y="139" style="font-size:10px;font-weight:none;stroke:none; fill:#333399" text-anchor="left" /></g><g componentSequence="9"><text x="760" y="150" style="font-size:10px;font-weight:none;stroke:none; fill:#333399" text-anchor="left" /></g><g componentSequence="13"><text x="81" y="314" style="font-size:10px;font-weight:none;stroke:none; fill:#333399" text-anchor="left" /></g><g componentSequence="18"><text x="438" y="398" style="font-size:10px;font-weight:none;stroke:none; fill:#333399" text-anchor="left" /></g><g componentSequence="20"><text x="810" y="124" style="font-size:10px;font-weight:none;stroke:none; fill:#333399" text-anchor="left" /></g><g componentSequence="22"><text x="860" y="158" style="font-size:10px;font-weight:none;stroke:none; fill:#333399" text-anchor="left" /></g><g componentSequence="25"><text x="953" y="228" style="font-size:10px;font-weight:none;stroke:none; fill:#333399" text-anchor="left" /></g><g componentSequence="27"><text x="839" y="252" style="font-size:10px;font-weight:none;stroke:none; fill:#333399" text-anchor="left" /></g><g componentSequence="28"><text x="821" y="301" style="font-size:10px;font-weight:none;stroke:none; fill:#333399" text-anchor="left" /></g><g componentSequence="29"><text x="1048" y="48" style="font-size:10px;font-weight:none;stroke:none; fill:#333399" text-anchor="left" /></g><g componentSequence="30"><text x="418" y="230" style="font-size:10px;font-weight:none;stroke:none; fill:#333399" text-anchor="left" /></g><g componentSequence="31"><text x="151" y="314" style="font-size:10px;font-weight:none;stroke:none; fill:#333399" text-anchor="left" /></g><g componentSequence="32"><text x="668" y="151" style="font-size:10px;font-weight:none;stroke:none; fill:#333399" text-anchor="left" /></g><path style="fill:none; stroke:#000000;stroke-width:1" d="M111.0 78.0 L112.0 199.0" /><polygon style="fill:#000000; stroke:#000000;" points=" 117 189 112 199 107 189 112 191" /><path style="fill:none; stroke:#000000;stroke-width:1" d="M97.0 260.0 L70.0 312.0 L98.0 369.0" /><polygon style="fill:#000000; stroke:#000000;" points=" 98 358 98 369 89 362 94 362" /><path style="fill:none; stroke:#000000;stroke-width:1" d="M166.0 230.0 L649.0 230.0" /><polygon style="fill:#000000; stroke:#000000;" points=" 639 225 649 230 639 235 641 230" /><path style="fill:none; stroke:#000000;stroke-width:1" d="M123.0 369.0 L142.0 312.0 L123.0 260.0" /><polygon style="fill:#000000; stroke:#000000;" points=" 122 271 123 260 131 268 126 268" /><path style="fill:none; stroke:#000000;stroke-width:1" d="M721.0 199.0 L752.0 147.0 L725.0 101.0" /><polygon style="fill:#000000; stroke:#000000;" points=" 726 112 725 101 734 107 729 108" /><path style="fill:none; stroke:#000000;stroke-width:1" d="M731.0 199.0 L803.0 121.0 L889.0 76.0" /><polygon style="fill:#000000; stroke:#000000;" points=" 878 76 889 76 882 85 882 80" /><path style="fill:none; stroke:#000000;stroke-width:1" d="M756.0 229.0 L1130.0 227.0" /><polygon style="fill:#000000; stroke:#000000;" points=" 1120 222 1130 227 1120 232 1122 227" /><path style="fill:none; stroke:#000000;stroke-width:1" d="M756.0 239.0 L834.0 253.0 L899.0 279.0" /><polygon style="fill:#000000; stroke:#000000;" points=" 892 271 899 279 888 280 892 276" /><path style="fill:none; stroke:#000000;stroke-width:1" d="M917.0 79.0 L855.0 155.0 L756.0 203.0" /><polygon style="fill:#000000; stroke:#000000;" points=" 767 203 756 203 763 194 763 200" /><path style="fill:none; stroke:#000000;stroke-width:1" d="M899.0 300.0 L786.0 301.0 L738.0 260.0" /><polygon style="fill:#000000; stroke:#000000;" points=" 742 270 738 260 749 263 744 265" /><path style="fill:none; stroke:#000000;stroke-width:1" d="M683.0 101.0 L657.0 154.0 L684.0 199.0" /><polygon style="fill:#000000; stroke:#000000;" points=" 683 188 684 199 675 193 680 192" /><path style="fill:none; stroke:#000000;stroke-width:1" d="M166.0 399.0 L690.0 397.0" /><polygon style="fill:#000000; stroke:#000000;" points=" 680 392 690 397 680 402 682 397" /><path style="fill:none; stroke:#000000;stroke-width:1" d="M996.0 48.0 L1080.0 47.0" /><polygon style="fill:#000000; stroke:#000000;" points=" 1070 42 1080 47 1070 52 1072 47" /><defs><linearGradient xmlns:xlink="http://www.w3.org/1999/xlink" xlink:href="#linearGradient66FF6696FF96B6FFB6" id="linearGradient66FF6696FF96B6FFB6_1047326029" x1="0" y1="44.0" x2="0" y2="79.0" gradientUnits="userSpaceOnUse" xlink:type="simple" xlink:actuate="onLoad" xlink:show="other" /><linearGradient id="linearGradient66FF6696FF96B6FFB6"><stop style="stop-color:#66FF66;stop-opacity:1;" offset="0.0" id="stop66FF66" /><stop style="stop-color:#96FF96;stop-opacity:1;" offset="0.5" id="stop96FF96" /><stop style="stop-color:#B6FFB6;stop-opacity:1;" offset="1.0" id="stopB6FFB6" /></linearGradient><linearGradient xmlns:xlink="http://www.w3.org/1999/xlink" xlink:href="#linearGradientF8FBFEEDF5FCDEEDFAD4E7F8E2E5E9" id="linearGradientF8FBFEEDF5FCDEEDFAD4E7F8E2E5E9_816514288" x1="0" y1="200.0" x2="0" y2="306.0" gradientUnits="userSpaceOnUse" xlink:type="simple" xlink:actuate="onLoad" xlink:show="other" /><linearGradient id="linearGradientF8FBFEEDF5FCDEEDFAD4E7F8E2E5E9"><stop style="stop-color:#F8FBFE;stop-opacity:1;" offset="0.0" id="stopF8FBFE" /><stop style="stop-color:#EDF5FC;stop-opacity:1;" offset="0.25" id="stopEDF5FC" /><stop style="stop-color:#DEEDFA;stop-opacity:1;" offset="0.5" id="stopDEEDFA" /><stop style="stop-color:#D4E7F8;stop-opacity:1;" offset="0.75" id="stopD4E7F8" /><stop style="stop-color:#E2E5E9;stop-opacity:1;" offset="1.0" id="stopE2E5E9" /></linearGradient><linearGradient xmlns:xlink="http://www.w3.org/1999/xlink" xlink:href="#linearGradientF8FBFEEDF5FCDEEDFAD4E7F8E2E5E9" id="linearGradientF8FBFEEDF5FCDEEDFAD4E7F8E2E5E9_882148925" x1="0" y1="200.0" x2="0" y2="306.0" gradientUnits="userSpaceOnUse" xlink:type="simple" xlink:actuate="onLoad" xlink:show="other" /><linearGradient xmlns:xlink="http://www.w3.org/1999/xlink" xlink:href="#linearGradientF8FBFEEDF5FCDEEDFAD4E7F8E2E5E9" id="linearGradientF8FBFEEDF5FCDEEDFAD4E7F8E2E5E9_1905659595" x1="0" y1="25.0" x2="0" y2="131.0" gradientUnits="userSpaceOnUse" xlink:type="simple" xlink:actuate="onLoad" xlink:show="other" /><linearGradient xmlns:xlink="http://www.w3.org/1999/xlink" xlink:href="#linearGradientF8FBFEEDF5FCDEEDFAD4E7F8E2E5E9" id="linearGradientF8FBFEEDF5FCDEEDFAD4E7F8E2E5E9_675906353" x1="0" y1="370.0" x2="0" y2="476.0" gradientUnits="userSpaceOnUse" xlink:type="simple" xlink:actuate="onLoad" xlink:show="other" /><linearGradient xmlns:xlink="http://www.w3.org/1999/xlink" xlink:href="#linearGradientFF6666FF9696FFB6B6" id="linearGradientFF6666FF9696FFB6B6_1085120076" x1="0" y1="210.0" x2="0" y2="245.0" gradientUnits="userSpaceOnUse" xlink:type="simple" xlink:actuate="onLoad" xlink:show="other" /><linearGradient id="linearGradientFF6666FF9696FFB6B6"><stop style="stop-color:#FF6666;stop-opacity:1;" offset="0.0" id="stopFF6666" /><stop style="stop-color:#FF9696;stop-opacity:1;" offset="0.5" id="stopFF9696" /><stop style="stop-color:#FFB6B6;stop-opacity:1;" offset="1.0" id="stopFFB6B6" /></linearGradient><linearGradient xmlns:xlink="http://www.w3.org/1999/xlink" xlink:href="#linearGradientFF6666FF9696FFB6B6" id="linearGradientFF6666FF9696FFB6B6_1352158474" x1="0" y1="380.0" x2="0" y2="415.0" gradientUnits="userSpaceOnUse" xlink:type="simple" xlink:actuate="onLoad" xlink:show="other" /><linearGradient xmlns:xlink="http://www.w3.org/1999/xlink" xlink:href="#linearGradientF8FBFEEDF5FCDEEDFAD4E7F8E2E5E9" id="linearGradientF8FBFEEDF5FCDEEDFAD4E7F8E2E5E9_297398660" x1="0" y1="19.0" x2="0" y2="125.0" gradientUnits="userSpaceOnUse" xlink:type="simple" xlink:actuate="onLoad" xlink:show="other" /><linearGradient xmlns:xlink="http://www.w3.org/1999/xlink" xlink:href="#linearGradientFF6666FF9696FFB6B6" id="linearGradientFF6666FF9696FFB6B6_1963833481" x1="0" y1="30.0" x2="0" y2="65.0" gradientUnits="userSpaceOnUse" xlink:type="simple" xlink:actuate="onLoad" xlink:show="other" /><linearGradient xmlns:xlink="http://www.w3.org/1999/xlink" xlink:href="#linearGradientF8FBFEEDF5FCDEEDFAD4E7F8E2E5E9" id="linearGradientF8FBFEEDF5FCDEEDFAD4E7F8E2E5E9_1509824410" x1="0" y1="270.0" x2="0" y2="376.0" gradientUnits="userSpaceOnUse" xlink:type="simple" xlink:actuate="onLoad" xlink:show="other" /></defs></svg>
