<?xml version="1.0" encoding="UTF-8"?>
<svg xmlns="http://www.w3.org/2000/svg" style="stroke-dasharray:none; shape-rendering:auto; font-family:'Arial'; text-rendering:auto; fill-opacity:1; color-interpolation:auto; color-rendering:auto; font-size:12; fill:black; stroke:black; image-rendering:auto; stroke-miterlimit:10; stroke-linecap:square; stroke-linejoin:miter; font-style:normal; stroke-width:1; stroke-dashoffset:0; font-weight:normal; stroke-opacity:1;" contentScriptType="text/ecmascript" preserveAspectRatio="xMidYMid meet" zoomAndPan="magnify" version="1.0" contentStyleType="text/css" xml:xlink="http://www.w3.org/1999/xlink" width="1111" height="631"><rect x="0" y="10" width="1111" height="621" ry="0" rx="0" style="stroke:#000000; fill:#FFFFFF" /><rect x="30" y="217" width="1081" height="207" ry="0" rx="0" style="stroke:#000000; fill:#ADC9AC" /><g componentSequence="3"><text x="-320" y="38" transform="rotate(270)" text-anchor="middle" style="font-weight:bold;font-size:10px;stroke:none; fill:#434343"><tspan dy="14" x="-320">Financeiro</tspan></text></g><rect x="30" y="424" width="1081" height="207" ry="0" rx="0" style="stroke:#000000; fill:#82B0B7" /><g componentSequence="2"><text x="-527" y="38" transform="rotate(270)" text-anchor="middle" style="font-weight:bold;font-size:10px;stroke:none; fill:#434343"><tspan dy="14" x="-527">Aprovação</tspan></text></g><rect x="30" y="10" width="1081" height="207" ry="0" rx="0" style="stroke:#000000; fill:#9FC1C6" /><g componentSequence="1"><text x="-113" y="38" transform="rotate(270)" text-anchor="middle" style="font-weight:bold;font-size:10px;stroke:none; fill:#434343"><tspan dy="14" x="-113">Solicitante</tspan></text></g><g componentSequence="24"><text x="-320" y="8" transform="rotate(270)" text-anchor="middle" style="font-weight:bold;font-size:10px;stroke:none; fill:#434343"><tspan dy="14" x="-320">Solicitação de Reembolso</tspan></text></g><g sequence="4"><ellipse cx="187" cy="77" rx="17" ry="17" stroke-width="1" style="fill:url(#linearGradient66FF6696FF96B6FFB6_165506419);" stroke="336633" /></g><g sequence="5"><rect x="140" y="287" width="106" height="60" ry="5" rx="5" style="fill:url(#linearGradientF8FBFEEDF5FCDEEDFAD4E7F8E2E5E9_119181880);" stroke="191970" /></g><g componentSequence="5"><text x="193" y="306" text-anchor="middle" style="font-weight:bold;font-size:10px;stroke:none; fill:#333399"><tspan dy="14" x="193">Triagem</tspan></text></g><g sequence="6"><rect x="140" y="490" width="106" height="76" ry="5" rx="5" style="fill:url(#linearGradientF8FBFEEDF5FCDEEDFAD4E7F8E2E5E9_52758019);" stroke="191970" /></g><g componentSequence="6"><text x="193" y="505" text-anchor="middle" style="font-weight:bold;font-size:10px;stroke:none; fill:#333399"><tspan dy="14" x="193">Aprovação</tspan><tspan dy="14" x="193">CEO</tspan></text></g><g sequence="7"><ellipse cx="477" cy="527" rx="17" ry="17" stroke-width="3" style="fill:url(#linearGradientFF6666FF9696FFB6B6_1176999939);" stroke="993333" /></g><g sequence="8"><rect x="440" y="279" width="106" height="76" ry="5" rx="5" style="fill:url(#linearGradientF8FBFEEDF5FCDEEDFAD4E7F8E2E5E9_611566401);" stroke="191970" /></g><g componentSequence="8"><text x="493" y="294" text-anchor="middle" style="font-weight:bold;font-size:10px;stroke:none; fill:#333399"><tspan dy="14" x="493">Em</tspan><tspan dy="14" x="493">atendimento</tspan></text></g><g sequence="9"><rect x="730" y="76" width="106" height="76" ry="5" rx="5" style="fill:url(#linearGradientF8FBFEEDF5FCDEEDFAD4E7F8E2E5E9_2007703205);" stroke="191970" /></g><g componentSequence="9"><text x="783" y="103" text-anchor="middle" style="font-weight:bold;font-size:10px;stroke:none; fill:#333399"><tspan dy="14" x="783">Em validação</tspan></text></g><g sequence="10"><ellipse cx="987" cy="113" rx="17" ry="17" stroke-width="3" style="fill:url(#linearGradientFF6666FF9696FFB6B6_1544887117);" stroke="993333" /></g><g sequence="11"><rect x="300" y="68" width="106" height="92" ry="5" rx="5" style="fill:url(#linearGradientF8FBFEEDF5FCDEEDFAD4E7F8E2E5E9_638084940);" stroke="191970" /></g><g componentSequence="11"><text x="353" y="83" text-anchor="middle" style="font-weight:bold;font-size:10px;stroke:none; fill:#333399"><tspan dy="14" x="353">Pendência ao</tspan><tspan dy="14" x="353">solicitante</tspan></text></g><g componentSequence="12"><text x="200" y="191" style="font-size:10px;font-weight:none;stroke:none; fill:#333399" text-anchor="left" /></g><g componentSequence="13"><text x="203" y="418" style="font-size:10px;font-weight:none;stroke:none; fill:#333399" text-anchor="left" /></g><g componentSequence="14"><text x="363" y="527" style="font-size:10px;font-weight:none;stroke:none; fill:#333399" text-anchor="left" /></g><g componentSequence="15"><text x="353" y="317" style="font-size:10px;font-weight:none;stroke:none; fill:#333399" text-anchor="left" /></g><g componentSequence="16"><text x="757" y="317" style="font-size:10px;font-weight:none;stroke:none; fill:#333399" text-anchor="left" /></g><g componentSequence="17"><text x="913" y="113" style="font-size:10px;font-weight:none;stroke:none; fill:#333399" text-anchor="left" /></g><g componentSequence="19"><text x="116" y="422" style="font-size:10px;font-weight:none;stroke:none; fill:#333399" text-anchor="left" /></g><g componentSequence="20"><text x="503" y="153" style="font-size:10px;font-weight:none;stroke:none; fill:#333399" text-anchor="left" /></g><g componentSequence="21"><text x="362" y="282" style="font-size:10px;font-weight:none;stroke:none; fill:#333399" text-anchor="left" /></g><g componentSequence="22"><text x="913" y="113" style="font-size:10px;font-weight:none;stroke:none; fill:#333399" text-anchor="left" /></g><g componentSequence="23"><text x="606" y="173" style="font-size:10px;font-weight:none;stroke:none; fill:#333399" text-anchor="left" /></g><path style="fill:none; stroke:#000000;stroke-width:1" d="M187.0 94.0 L192.0 286.0" /><polygon style="fill:#000000; stroke:#000000;" points=" 197 276 192 286 187 276 192 278" /><path style="fill:none; stroke:#000000;stroke-width:1" d="M193.0 347.0 L193.0 489.0" /><polygon style="fill:#000000; stroke:#000000;" points=" 198 479 193 489 188 479 193 481" /><path style="fill:none; stroke:#000000;stroke-width:1" d="M246.0 317.0 L439.0 317.0" /><polygon style="fill:#000000; stroke:#000000;" points=" 429 312 439 317 429 322 431 317" /><path style="fill:none; stroke:#000000;stroke-width:1" d="M139.0 527.0 L106.0 527.0 L106.0 317.0 L139.0 317.0" /><polygon style="fill:#000000; stroke:#000000;" points=" 129 312 139 317 129 322 131 317" /><path style="fill:none; stroke:#000000;stroke-width:1" d="M246.0 527.0 L460.0 527.0" /><polygon style="fill:#000000; stroke:#000000;" points=" 450 522 460 527 450 532 452 527" /><path style="fill:none; stroke:#000000;stroke-width:1" d="M546.0 317.0 L559.0 317.0 L782.0 317.0 L782.0 152.0" /><polygon style="fill:#000000; stroke:#000000;" points=" 777 162 782 152 787 162 782 160" /><path style="fill:none; stroke:#000000;stroke-width:1" d="M493.0 278.0 L493.0 114.0 L406.0 114.0" /><polygon style="fill:#000000; stroke:#000000;" points=" 416 119 406 114 416 109 414 114" /><path style="fill:none; stroke:#000000;stroke-width:1" d="M352.0 160.0 L352.0 316.0 L439.0 316.0" /><polygon style="fill:#000000; stroke:#000000;" points=" 429 311 439 316 429 321 431 316" /><path style="fill:none; stroke:#000000;stroke-width:1" d="M729.0 113.0 L596.0 113.0 L596.0 316.0 L546.0 316.0" /><polygon style="fill:#000000; stroke:#000000;" points=" 556 321 546 316 556 311 554 316" /><path style="fill:none; stroke:#009600;stroke-width:1" d="M836.0 113.0 L970.0 113.0" /><polygon style="fill:#009600; stroke:#009600;" points=" 960 108 970 113 960 118 962 113" /><path style="fill:none; stroke:#000000;stroke-width:1" d="M836.0 113.0 L970.0 113.0" /><polygon style="fill:#000000; stroke:#000000;" points=" 960 108 970 113 960 118 962 113" /><defs><linearGradient xmlns:xlink="http://www.w3.org/1999/xlink" xlink:href="#linearGradient66FF6696FF96B6FFB6" id="linearGradient66FF6696FF96B6FFB6_165506419" x1="0" y1="60.0" x2="0" y2="95.0" gradientUnits="userSpaceOnUse" xlink:type="simple" xlink:actuate="onLoad" xlink:show="other" /><linearGradient id="linearGradient66FF6696FF96B6FFB6"><stop style="stop-color:#66FF66;stop-opacity:1;" offset="0.0" id="stop66FF66" /><stop style="stop-color:#96FF96;stop-opacity:1;" offset="0.5" id="stop96FF96" /><stop style="stop-color:#B6FFB6;stop-opacity:1;" offset="1.0" id="stopB6FFB6" /></linearGradient><linearGradient xmlns:xlink="http://www.w3.org/1999/xlink" xlink:href="#linearGradientF8FBFEEDF5FCDEEDFAD4E7F8E2E5E9" id="linearGradientF8FBFEEDF5FCDEEDFAD4E7F8E2E5E9_119181880" x1="0" y1="287.0" x2="0" y2="393.0" gradientUnits="userSpaceOnUse" xlink:type="simple" xlink:actuate="onLoad" xlink:show="other" /><linearGradient id="linearGradientF8FBFEEDF5FCDEEDFAD4E7F8E2E5E9"><stop style="stop-color:#F8FBFE;stop-opacity:1;" offset="0.0" id="stopF8FBFE" /><stop style="stop-color:#EDF5FC;stop-opacity:1;" offset="0.25" id="stopEDF5FC" /><stop style="stop-color:#DEEDFA;stop-opacity:1;" offset="0.5" id="stopDEEDFA" /><stop style="stop-color:#D4E7F8;stop-opacity:1;" offset="0.75" id="stopD4E7F8" /><stop style="stop-color:#E2E5E9;stop-opacity:1;" offset="1.0" id="stopE2E5E9" /></linearGradient><linearGradient xmlns:xlink="http://www.w3.org/1999/xlink" xlink:href="#linearGradientF8FBFEEDF5FCDEEDFAD4E7F8E2E5E9" id="linearGradientF8FBFEEDF5FCDEEDFAD4E7F8E2E5E9_52758019" x1="0" y1="490.0" x2="0" y2="596.0" gradientUnits="userSpaceOnUse" xlink:type="simple" xlink:actuate="onLoad" xlink:show="other" /><linearGradient xmlns:xlink="http://www.w3.org/1999/xlink" xlink:href="#linearGradientFF6666FF9696FFB6B6" id="linearGradientFF6666FF9696FFB6B6_1176999939" x1="0" y1="510.0" x2="0" y2="545.0" gradientUnits="userSpaceOnUse" xlink:type="simple" xlink:actuate="onLoad" xlink:show="other" /><linearGradient id="linearGradientFF6666FF9696FFB6B6"><stop style="stop-color:#FF6666;stop-opacity:1;" offset="0.0" id="stopFF6666" /><stop style="stop-color:#FF9696;stop-opacity:1;" offset="0.5" id="stopFF9696" /><stop style="stop-color:#FFB6B6;stop-opacity:1;" offset="1.0" id="stopFFB6B6" /></linearGradient><linearGradient xmlns:xlink="http://www.w3.org/1999/xlink" xlink:href="#linearGradientF8FBFEEDF5FCDEEDFAD4E7F8E2E5E9" id="linearGradientF8FBFEEDF5FCDEEDFAD4E7F8E2E5E9_611566401" x1="0" y1="279.0" x2="0" y2="385.0" gradientUnits="userSpaceOnUse" xlink:type="simple" xlink:actuate="onLoad" xlink:show="other" /><linearGradient xmlns:xlink="http://www.w3.org/1999/xlink" xlink:href="#linearGradientF8FBFEEDF5FCDEEDFAD4E7F8E2E5E9" id="linearGradientF8FBFEEDF5FCDEEDFAD4E7F8E2E5E9_2007703205" x1="0" y1="76.0" x2="0" y2="182.0" gradientUnits="userSpaceOnUse" xlink:type="simple" xlink:actuate="onLoad" xlink:show="other" /><linearGradient xmlns:xlink="http://www.w3.org/1999/xlink" xlink:href="#linearGradientFF6666FF9696FFB6B6" id="linearGradientFF6666FF9696FFB6B6_1544887117" x1="0" y1="96.0" x2="0" y2="131.0" gradientUnits="userSpaceOnUse" xlink:type="simple" xlink:actuate="onLoad" xlink:show="other" /><linearGradient xmlns:xlink="http://www.w3.org/1999/xlink" xlink:href="#linearGradientF8FBFEEDF5FCDEEDFAD4E7F8E2E5E9" id="linearGradientF8FBFEEDF5FCDEEDFAD4E7F8E2E5E9_638084940" x1="0" y1="68.0" x2="0" y2="174.0" gradientUnits="userSpaceOnUse" xlink:type="simple" xlink:actuate="onLoad" xlink:show="other" /></defs></svg>
