<?xml version="1.0" encoding="UTF-8"?>
<svg xmlns="http://www.w3.org/2000/svg" style="stroke-dasharray:none; shape-rendering:auto; font-family:'Arial'; text-rendering:auto; fill-opacity:1; color-interpolation:auto; color-rendering:auto; font-size:12; fill:black; stroke:black; image-rendering:auto; stroke-miterlimit:10; stroke-linecap:square; stroke-linejoin:miter; font-style:normal; stroke-width:1; stroke-dashoffset:0; font-weight:normal; stroke-opacity:1;" contentScriptType="text/ecmascript" preserveAspectRatio="xMidYMid meet" zoomAndPan="magnify" version="1.0" contentStyleType="text/css" xml:xlink="http://www.w3.org/1999/xlink" width="1181" height="612"><rect x="0" y="1" width="1181" height="156" ry="0" rx="0" style="stroke:#000000; fill:#9FC1C6" /><g componentSequence="4"><text x="-79" y="8" transform="rotate(270)" text-anchor="middle" style="font-weight:bold;font-size:10px;stroke:none; fill:#434343"><tspan dy="14" x="-79">SOLICITANTE</tspan></text></g><rect x="0" y="308" width="1181" height="150" ry="0" rx="0" style="stroke:#000000; fill:#ADC9AC" /><g componentSequence="2"><text x="-383" y="8" transform="rotate(270)" text-anchor="middle" style="font-weight:bold;font-size:10px;stroke:none; fill:#434343"><tspan dy="14" x="-383">GERENTE</tspan></text></g><rect x="0" y="156" width="1181" height="153" ry="0" rx="0" style="stroke:#000000; fill:#82B0B7" /><g componentSequence="1"><text x="-232" y="8" transform="rotate(270)" text-anchor="middle" style="font-weight:bold;font-size:10px;stroke:none; fill:#434343"><tspan dy="14" x="-232">FINANCEIRO</tspan></text></g><rect x="0" y="457" width="1181" height="155" ry="0" rx="0" style="stroke:#000000; fill:#D0DAAE" /><g componentSequence="3"><text x="-534" y="8" transform="rotate(270)" text-anchor="middle" style="font-weight:bold;font-size:10px;stroke:none; fill:#434343"><tspan dy="14" x="-534">CEO</tspan></text></g><g sequence="4"><ellipse cx="57" cy="87" rx="17" ry="17" stroke-width="1" style="fill:url(#linearGradient66FF6696FF96B6FFB6_706714412);" stroke="336633" /></g><g sequence="5"><rect x="375" y="195" width="106" height="60" ry="5" rx="5" style="fill:url(#linearGradientF8FBFEEDF5FCDEEDFAD4E7F8E2E5E9_618164255);" stroke="191970" /></g><g componentSequence="5"><text x="428" y="214" text-anchor="middle" style="font-weight:bold;font-size:10px;stroke:none; fill:#333399"><tspan dy="14" x="428">Triagem</tspan></text></g><g sequence="6"><rect x="680" y="197" width="106" height="76" ry="5" rx="5" style="fill:url(#linearGradientF8FBFEEDF5FCDEEDFAD4E7F8E2E5E9_552071260);" stroke="191970" /></g><g componentSequence="6"><text x="733" y="212" text-anchor="middle" style="font-weight:bold;font-size:10px;stroke:none; fill:#333399"><tspan dy="14" x="733">Em</tspan><tspan dy="14" x="733">atendimento</tspan></text></g><g sequence="7"><rect x="222" y="353" width="106" height="76" ry="5" rx="5" style="fill:url(#linearGradientF8FBFEEDF5FCDEEDFAD4E7F8E2E5E9_1709537828);" stroke="191970" /></g><g componentSequence="7"><text x="275" y="368" text-anchor="middle" style="font-weight:bold;font-size:10px;stroke:none; fill:#333399"><tspan dy="14" x="275">Aprovação</tspan><tspan dy="14" x="275">gerente</tspan></text></g><g sequence="8"><rect x="223" y="520" width="106" height="76" ry="5" rx="5" style="fill:url(#linearGradientF8FBFEEDF5FCDEEDFAD4E7F8E2E5E9_863325007);" stroke="191970" /></g><g componentSequence="8"><text x="276" y="535" text-anchor="middle" style="font-weight:bold;font-size:10px;stroke:none; fill:#333399"><tspan dy="14" x="276">Aprovação</tspan><tspan dy="14" x="276">CEO</tspan></text></g><g sequence="11"><rect x="375" y="33" width="106" height="92" ry="5" rx="5" style="fill:url(#linearGradientF8FBFEEDF5FCDEEDFAD4E7F8E2E5E9_1422564790);" stroke="191970" /></g><g componentSequence="11"><text x="428" y="48" text-anchor="middle" style="font-weight:bold;font-size:10px;stroke:none; fill:#333399"><tspan dy="14" x="428">Pendência ao</tspan><tspan dy="14" x="428">solicitante</tspan></text></g><g sequence="15"><ellipse cx="910" cy="230" rx="17" ry="17" stroke-width="3" style="fill:url(#linearGradientFF6666FF9696FFB6B6_1269887587);" stroke="993333" /></g><g sequence="28"><rect x="677" y="28" width="106" height="76" ry="5" rx="5" style="fill:url(#linearGradientF8FBFEEDF5FCDEEDFAD4E7F8E2E5E9_97158507);" stroke="191970" /></g><g componentSequence="28"><text x="730" y="43" text-anchor="middle" style="font-weight:bold;font-size:10px;stroke:none; fill:#333399"><tspan dy="14" x="730">Pendência ao</tspan><tspan dy="14" x="730">solicitante</tspan></text></g><g sequence="31"><rect x="130" y="190" width="106" height="76" ry="5" rx="5" style="fill:url(#linearGradientF8FBFEEDF5FCDEEDFAD4E7F8E2E5E9_477923758);" stroke="191970" /></g><g componentSequence="31"><text x="183" y="205" text-anchor="middle" style="font-weight:bold;font-size:10px;stroke:none; fill:#333399"><tspan dy="14" x="183">Gestor de</tspan><tspan dy="14" x="183">Contrato</tspan></text></g><g sequence="32"><polygon points=" 150 70 180 40 210 70 180 100 150 70" style="fill:url(#linearGradientFAFBFCFFFFCC_484147386);" stroke="000000" /></g><g componentSequence="32"><text x="180" y="110" text-anchor="middle" style="font-weight:bold;font-size:10px;stroke:none; fill:#333399"><tspan dy="14" x="180">Exclusi</tspan><tspan dy="14" x="180">vo</tspan></text></g><g sequence="40"><ellipse cx="87" cy="227" rx="17" ry="17" stroke-width="3" style="fill:url(#linearGradientFF6666FF9696FFB6B6_1353996968);" stroke="993333" /></g><g sequence="42"><ellipse cx="427" cy="508" rx="17" ry="17" stroke-width="3" style="fill:url(#linearGradientFF6666FF9696FFB6B6_25459720);" stroke="993333" /></g><g componentSequence="17"><text x="590" y="230" style="font-size:10px;font-weight:none;stroke:none; fill:#333399" text-anchor="left" /></g><g componentSequence="22"><text x="285" y="474" style="font-size:10px;font-weight:none;stroke:none; fill:#333399" text-anchor="left" /></g><g componentSequence="23"><text x="487" y="161" style="font-size:10px;font-weight:none;stroke:none; fill:#333399" text-anchor="left" /></g><g componentSequence="24"><text x="849" y="232" style="font-size:10px;font-weight:none;stroke:none; fill:#333399" text-anchor="left" /></g><g componentSequence="25"><text x="402" y="322" style="font-size:10px;font-weight:none;stroke:none; fill:#333399" text-anchor="left" /></g><g componentSequence="27"><text x="387" y="161" style="font-size:10px;font-weight:none;stroke:none; fill:#333399" text-anchor="left" /></g><g componentSequence="29"><text x="695" y="150" style="font-size:10px;font-weight:none;stroke:none; fill:#333399" text-anchor="left" /></g><g componentSequence="30"><text x="788" y="150" style="font-size:10px;font-weight:none;stroke:none; fill:#333399" text-anchor="left" /></g><g componentSequence="33"><text x="122" y="90" style="font-size:10px;font-weight:none;stroke:none; fill:#333399" text-anchor="left" /></g><g componentSequence="34"><text x="192" y="169" style="font-size:10px;font-weight:none;stroke:none; fill:#333399" text-anchor="left" /></g><g componentSequence="35"><text x="302" y="153" style="font-size:10px;font-weight:none;stroke:none; fill:#333399" text-anchor="left" /></g><g componentSequence="36"><text x="315" y="226" style="font-size:10px;font-weight:none;stroke:none; fill:#333399" text-anchor="left" /></g><g componentSequence="37"><text x="684" y="558" style="font-size:10px;font-weight:none;stroke:none; fill:#333399" text-anchor="left" /></g><g componentSequence="38"><text x="536" y="369" style="font-size:10px;font-weight:none;stroke:none; fill:#333399" text-anchor="left" /></g><g componentSequence="39"><text x="331" y="291" style="font-size:10px;font-weight:none;stroke:none; fill:#333399" text-anchor="left" /></g><g componentSequence="41"><text x="127" y="227" style="font-size:10px;font-weight:none;stroke:none; fill:#333399" text-anchor="left" /></g><g componentSequence="43"><text x="379" y="527" style="font-size:10px;font-weight:none;stroke:none; fill:#333399" text-anchor="left" /></g><path style="fill:none; stroke:#000000;stroke-width:1" d="M74.0 88.0 L149.0 92.0" /><polygon style="fill:#000000; stroke:#000000;" points=" 139 86 149 92 139 96 141 92" /><path style="fill:none; stroke:#000000;stroke-width:1" d="M481.0 226.0 L679.0 233.0" /><polygon style="fill:#000000; stroke:#000000;" points=" 669 228 679 233 669 238 671 233" /><path style="fill:none; stroke:#000000;stroke-width:1" d="M451.0 194.0 L478.0 160.0 L456.0 125.0" /><polygon style="fill:#000000; stroke:#000000;" points=" 457 136 456 125 466 131 460 132" /><path style="fill:none; stroke:#000000;stroke-width:1" d="M379.0 255.0 L320.0 292.0 L292.0 352.0" /><polygon style="fill:#000000; stroke:#000000;" points=" 301 345 292 352 292 341 295 345" /><path style="fill:none; stroke:#000000;stroke-width:1" d="M328.0 359.0 L401.0 317.0 L419.0 255.0" /><polygon style="fill:#000000; stroke:#000000;" points=" 411 263 419 255 421 266 417 263" /><path style="fill:none; stroke:#000000;stroke-width:1" d="M399.0 125.0 L376.0 162.0 L402.0 194.0" /><polygon style="fill:#000000; stroke:#000000;" points=" 400 183 402 194 392 189 397 188" /><path style="fill:none; stroke:#000000;stroke-width:1" d="M210.0 110.0 L374.0 196.0" /><polygon style="fill:#000000; stroke:#000000;" points=" 367 187 374 196 363 196 367 192" /><path style="fill:none; stroke:#000000;stroke-width:1" d="M236.0 227.0 L374.0 225.0" /><polygon style="fill:#000000; stroke:#000000;" points=" 364 220 374 225 364 230 366 225" /><path style="fill:none; stroke:#000000;stroke-width:1" d="M786.0 233.0 L893.0 230.0" /><polygon style="fill:#000000; stroke:#000000;" points=" 883 225 893 230 883 235 885 230" /><path style="fill:none; stroke:#000000;stroke-width:1" d="M753.0 196.0 L779.0 148.0 L753.0 104.0" /><polygon style="fill:#000000; stroke:#000000;" points=" 754 115 753 104 762 110 757 111" /><path style="fill:none; stroke:#000000;stroke-width:1" d="M709.0 104.0 L685.0 150.0 L711.0 196.0" /><polygon style="fill:#000000; stroke:#000000;" points=" 710 185 711 196 702 190 707 189" /><path style="fill:none; stroke:#000000;stroke-width:1" d="M329.0 558.0 L733.0 558.0 L733.0 273.0" /><polygon style="fill:#000000; stroke:#000000;" points=" 728 283 733 273 738 283 733 281" /><path style="fill:none; stroke:#000000;stroke-width:1" d="M328.0 386.0 L589.0 363.0 L690.0 273.0" /><polygon style="fill:#000000; stroke:#000000;" points=" 679 276 690 273 686 283 684 278" /><path style="fill:none; stroke:#000000;stroke-width:1" d="M275.0 429.0 L275.0 519.0" /><polygon style="fill:#000000; stroke:#000000;" points=" 280 509 275 519 270 509 275 511" /><path style="fill:none; stroke:#000000;stroke-width:1" d="M329.0 540.0 L410.0 513.0" /><polygon style="fill:#000000; stroke:#000000;" points=" 399 511 410 513 402 521 402 516" /><path style="fill:none; stroke:#000000;stroke-width:1" d="M129.0 227.0 L104.0 227.0" /><polygon style="fill:#000000; stroke:#000000;" points=" 114 232 104 227 114 222 112 227" /><path style="fill:none; stroke:#000000;stroke-width:1" d="M181.0 148.0 L182.0 189.0" /><polygon style="fill:#000000; stroke:#000000;" points=" 187 179 182 189 177 179 182 181" /><defs><linearGradient xmlns:xlink="http://www.w3.org/1999/xlink" xlink:href="#linearGradient66FF6696FF96B6FFB6" id="linearGradient66FF6696FF96B6FFB6_706714412" x1="0" y1="70.0" x2="0" y2="105.0" gradientUnits="userSpaceOnUse" xlink:type="simple" xlink:actuate="onLoad" xlink:show="other" /><linearGradient id="linearGradient66FF6696FF96B6FFB6"><stop style="stop-color:#66FF66;stop-opacity:1;" offset="0.0" id="stop66FF66" /><stop style="stop-color:#96FF96;stop-opacity:1;" offset="0.5" id="stop96FF96" /><stop style="stop-color:#B6FFB6;stop-opacity:1;" offset="1.0" id="stopB6FFB6" /></linearGradient><linearGradient xmlns:xlink="http://www.w3.org/1999/xlink" xlink:href="#linearGradientF8FBFEEDF5FCDEEDFAD4E7F8E2E5E9" id="linearGradientF8FBFEEDF5FCDEEDFAD4E7F8E2E5E9_618164255" x1="0" y1="195.0" x2="0" y2="301.0" gradientUnits="userSpaceOnUse" xlink:type="simple" xlink:actuate="onLoad" xlink:show="other" /><linearGradient id="linearGradientF8FBFEEDF5FCDEEDFAD4E7F8E2E5E9"><stop style="stop-color:#F8FBFE;stop-opacity:1;" offset="0.0" id="stopF8FBFE" /><stop style="stop-color:#EDF5FC;stop-opacity:1;" offset="0.25" id="stopEDF5FC" /><stop style="stop-color:#DEEDFA;stop-opacity:1;" offset="0.5" id="stopDEEDFA" /><stop style="stop-color:#D4E7F8;stop-opacity:1;" offset="0.75" id="stopD4E7F8" /><stop style="stop-color:#E2E5E9;stop-opacity:1;" offset="1.0" id="stopE2E5E9" /></linearGradient><linearGradient xmlns:xlink="http://www.w3.org/1999/xlink" xlink:href="#linearGradientF8FBFEEDF5FCDEEDFAD4E7F8E2E5E9" id="linearGradientF8FBFEEDF5FCDEEDFAD4E7F8E2E5E9_552071260" x1="0" y1="197.0" x2="0" y2="303.0" gradientUnits="userSpaceOnUse" xlink:type="simple" xlink:actuate="onLoad" xlink:show="other" /><linearGradient xmlns:xlink="http://www.w3.org/1999/xlink" xlink:href="#linearGradientF8FBFEEDF5FCDEEDFAD4E7F8E2E5E9" id="linearGradientF8FBFEEDF5FCDEEDFAD4E7F8E2E5E9_1709537828" x1="0" y1="353.0" x2="0" y2="459.0" gradientUnits="userSpaceOnUse" xlink:type="simple" xlink:actuate="onLoad" xlink:show="other" /><linearGradient xmlns:xlink="http://www.w3.org/1999/xlink" xlink:href="#linearGradientF8FBFEEDF5FCDEEDFAD4E7F8E2E5E9" id="linearGradientF8FBFEEDF5FCDEEDFAD4E7F8E2E5E9_863325007" x1="0" y1="520.0" x2="0" y2="626.0" gradientUnits="userSpaceOnUse" xlink:type="simple" xlink:actuate="onLoad" xlink:show="other" /><linearGradient xmlns:xlink="http://www.w3.org/1999/xlink" xlink:href="#linearGradientF8FBFEEDF5FCDEEDFAD4E7F8E2E5E9" id="linearGradientF8FBFEEDF5FCDEEDFAD4E7F8E2E5E9_1422564790" x1="0" y1="33.0" x2="0" y2="139.0" gradientUnits="userSpaceOnUse" xlink:type="simple" xlink:actuate="onLoad" xlink:show="other" /><linearGradient xmlns:xlink="http://www.w3.org/1999/xlink" xlink:href="#linearGradientFF6666FF9696FFB6B6" id="linearGradientFF6666FF9696FFB6B6_1269887587" x1="0" y1="213.0" x2="0" y2="248.0" gradientUnits="userSpaceOnUse" xlink:type="simple" xlink:actuate="onLoad" xlink:show="other" /><linearGradient id="linearGradientFF6666FF9696FFB6B6"><stop style="stop-color:#FF6666;stop-opacity:1;" offset="0.0" id="stopFF6666" /><stop style="stop-color:#FF9696;stop-opacity:1;" offset="0.5" id="stopFF9696" /><stop style="stop-color:#FFB6B6;stop-opacity:1;" offset="1.0" id="stopFFB6B6" /></linearGradient><linearGradient xmlns:xlink="http://www.w3.org/1999/xlink" xlink:href="#linearGradientF8FBFEEDF5FCDEEDFAD4E7F8E2E5E9" id="linearGradientF8FBFEEDF5FCDEEDFAD4E7F8E2E5E9_97158507" x1="0" y1="28.0" x2="0" y2="134.0" gradientUnits="userSpaceOnUse" xlink:type="simple" xlink:actuate="onLoad" xlink:show="other" /><linearGradient xmlns:xlink="http://www.w3.org/1999/xlink" xlink:href="#linearGradientF8FBFEEDF5FCDEEDFAD4E7F8E2E5E9" id="linearGradientF8FBFEEDF5FCDEEDFAD4E7F8E2E5E9_477923758" x1="0" y1="190.0" x2="0" y2="296.0" gradientUnits="userSpaceOnUse" xlink:type="simple" xlink:actuate="onLoad" xlink:show="other" /><linearGradient xmlns:xlink="http://www.w3.org/1999/xlink" xlink:href="#linearGradientFAFBFCFFFFCC" id="linearGradientFAFBFCFFFFCC_484147386" x1="0" y1="40.0" x2="0" y2="100.0" gradientUnits="userSpaceOnUse" xlink:type="simple" xlink:actuate="onLoad" xlink:show="other" /><linearGradient id="linearGradientFAFBFCFFFFCC"><stop style="stop-color:#FAFBFC;stop-opacity:1;" offset="0.0" id="stopFAFBFC" /><stop style="stop-color:#FFFFCC;stop-opacity:1;" offset="1.0" id="stopFFFFCC" /></linearGradient><linearGradient xmlns:xlink="http://www.w3.org/1999/xlink" xlink:href="#linearGradientFF6666FF9696FFB6B6" id="linearGradientFF6666FF9696FFB6B6_1353996968" x1="0" y1="210.0" x2="0" y2="245.0" gradientUnits="userSpaceOnUse" xlink:type="simple" xlink:actuate="onLoad" xlink:show="other" /><linearGradient xmlns:xlink="http://www.w3.org/1999/xlink" xlink:href="#linearGradientFF6666FF9696FFB6B6" id="linearGradientFF6666FF9696FFB6B6_25459720" x1="0" y1="491.0" x2="0" y2="526.0" gradientUnits="userSpaceOnUse" xlink:type="simple" xlink:actuate="onLoad" xlink:show="other" /></defs></svg>
