<?xml version="1.0" encoding="UTF-8"?>
<svg xmlns="http://www.w3.org/2000/svg" style="stroke-dasharray:none; shape-rendering:auto; font-family:'Arial'; text-rendering:auto; fill-opacity:1; color-interpolation:auto; color-rendering:auto; font-size:12; fill:black; stroke:black; image-rendering:auto; stroke-miterlimit:10; stroke-linecap:square; stroke-linejoin:miter; font-style:normal; stroke-width:1; stroke-dashoffset:0; font-weight:normal; stroke-opacity:1;" contentScriptType="text/ecmascript" preserveAspectRatio="xMidYMid meet" zoomAndPan="magnify" version="1.0" contentStyleType="text/css" xml:xlink="http://www.w3.org/1999/xlink" width="1050" height="529"><rect x="0" y="1" width="1050" height="528" ry="0" rx="0" style="stroke:#000000; fill:#FFFFFF" /><rect x="30" y="177" width="1020" height="176" ry="0" rx="0" style="stroke:#000000; fill:#FFFFFF" /><g componentSequence="4"><text x="-265" y="38" transform="rotate(270)" text-anchor="middle" style="font-weight:bold;font-size:10px;stroke:none; fill:#434343"><tspan dy="14" x="-265">Usuário</tspan></text></g><rect x="30" y="353" width="1020" height="176" ry="0" rx="0" style="stroke:#000000; fill:#FFFFFF" /><g componentSequence="3"><text x="-441" y="38" transform="rotate(270)" text-anchor="middle" style="font-weight:bold;font-size:10px;stroke:none; fill:#434343"><tspan dy="14" x="-441">Financeiro</tspan></text></g><rect x="30" y="1" width="1020" height="176" ry="0" rx="0" style="stroke:#000000; fill:#FFFFFF" /><g componentSequence="2"><text x="-89" y="38" transform="rotate(270)" text-anchor="middle" style="font-weight:bold;font-size:10px;stroke:none; fill:#434343"><tspan dy="14" x="-89">CEO</tspan></text></g><g componentSequence="1"><text x="-265" y="8" transform="rotate(270)" text-anchor="middle" style="font-weight:bold;font-size:10px;stroke:none; fill:#434343"><tspan dy="14" x="-265">Recarga de combustível</tspan></text></g><g sequence="1"><ellipse cx="177" cy="167" rx="17" ry="17" stroke-width="1" style="fill:url(#linearGradient66FF6696FF96B6FFB6_918808189);" stroke="336633" /></g><g sequence="2"><rect x="610" y="140" width="106" height="76" ry="5" rx="5" style="fill:url(#linearGradientF8FBFEEDF5FCDEEDFAD4E7F8E2E5E9_939790037);" stroke="191970" /></g><g componentSequence="2"><text x="663" y="155" text-anchor="middle" style="font-weight:bold;font-size:10px;stroke:none; fill:#333399"><tspan dy="14" x="663">Gerente de</tspan><tspan dy="14" x="663">contratos</tspan></text></g><g sequence="4"><rect x="370" y="280" width="106" height="60" ry="5" rx="5" style="fill:url(#linearGradientF8FBFEEDF5FCDEEDFAD4E7F8E2E5E9_1010535693);" stroke="191970" /></g><g componentSequence="4"><text x="423" y="299" text-anchor="middle" style="font-weight:bold;font-size:10px;stroke:none; fill:#333399"><tspan dy="14" x="423">CEO</tspan></text></g><g sequence="6"><rect x="370" y="429" width="106" height="60" ry="5" rx="5" style="fill:url(#linearGradientF8FBFEEDF5FCDEEDFAD4E7F8E2E5E9_2033779950);" stroke="191970" /></g><g componentSequence="6"><text x="423" y="448" text-anchor="middle" style="font-weight:bold;font-size:10px;stroke:none; fill:#333399"><tspan dy="14" x="423">Recarga</tspan></text></g><g sequence="8"><rect x="600" y="429" width="106" height="76" ry="5" rx="5" style="fill:url(#linearGradientF8FBFEEDF5FCDEEDFAD4E7F8E2E5E9_1348531642);" stroke="191970" /></g><g componentSequence="8"><text x="653" y="444" text-anchor="middle" style="font-weight:bold;font-size:10px;stroke:none; fill:#333399"><tspan dy="14" x="653">Contas a</tspan><tspan dy="14" x="653">pagar</tspan></text></g><g sequence="10"><ellipse cx="827" cy="456" rx="17" ry="17" stroke-width="3" style="fill:url(#linearGradientFF6666FF9696FFB6B6_1208630213);" stroke="993333" /></g><g sequence="12"><rect x="610" y="10" width="106" height="92" ry="5" rx="5" style="fill:url(#linearGradientF8FBFEEDF5FCDEEDFAD4E7F8E2E5E9_683250732);" stroke="191970" /></g><g componentSequence="12"><text x="663" y="25" text-anchor="middle" style="font-weight:bold;font-size:10px;stroke:none; fill:#333399"><tspan dy="14" x="663">Pendência ao</tspan><tspan dy="14" x="663">Solicitante</tspan></text></g><g sequence="39"><rect x="110" y="422" width="106" height="76" ry="5" rx="5" style="fill:url(#linearGradientF8FBFEEDF5FCDEEDFAD4E7F8E2E5E9_420936609);" stroke="191970" /></g><g componentSequence="39"><text x="163" y="437" text-anchor="middle" style="font-weight:bold;font-size:10px;stroke:none; fill:#333399"><tspan dy="14" x="163">Pendência ao</tspan><tspan dy="14" x="163">solicitante</tspan></text></g><g sequence="52"><ellipse cx="877" cy="177" rx="17" ry="17" stroke-width="3" style="fill:url(#linearGradientFF6666FF9696FFB6B6_1309409308);" stroke="993333" /></g><g sequence="60"><polygon points=" 390 130 420 100 450 130 420 160 390 130" style="fill:url(#linearGradientFAFBFCFFFFCC_1463930379);" stroke="000000" /></g><g componentSequence="60"><text x="420" y="170" text-anchor="middle" style="font-weight:bold;font-size:10px;stroke:none; fill:#333399"><tspan dy="14" x="420">Enviar</tspan><tspan dy="14" x="420">para</tspan><tspan dy="14" x="420">Apr...</tspan></text></g><g sequence="67"><ellipse cx="156" cy="74" rx="17" ry="17" stroke-width="3" style="fill:url(#linearGradientFF6666FF9696FFB6B6_868038715);" stroke="993333" /></g><g componentSequence="9"><text x="548" y="463" style="font-size:10px;font-weight:none;stroke:none; fill:#333399" text-anchor="left" /></g><g componentSequence="11"><text x="768" y="460" style="font-size:10px;font-weight:none;stroke:none; fill:#333399" text-anchor="left" /></g><g componentSequence="13"><text x="673" y="121" style="font-size:10px;font-weight:none;stroke:none; fill:#333399" text-anchor="left" /></g><g componentSequence="15"><text x="673" y="121" style="font-size:10px;font-weight:none;stroke:none; fill:#333399" text-anchor="left" /></g><g componentSequence="38"><text x="624" y="308" style="font-size:10px;font-weight:none;stroke:none; fill:#333399" text-anchor="left" /></g><g componentSequence="40"><text x="303" y="459" style="font-size:10px;font-weight:none;stroke:none; fill:#333399" text-anchor="left" /></g><g componentSequence="41"><text x="303" y="459" style="font-size:10px;font-weight:none;stroke:none; fill:#333399" text-anchor="left" /></g><g componentSequence="44"><text x="413" y="79" style="font-size:10px;font-weight:none;stroke:none; fill:#333399" text-anchor="left" /></g><g componentSequence="53"><text x="798" y="177" style="font-size:10px;font-weight:none;stroke:none; fill:#333399" text-anchor="left" /></g><g componentSequence="57"><text x="433" y="384" style="font-size:10px;font-weight:none;stroke:none; fill:#333399" text-anchor="left" /></g><g componentSequence="59"><text x="623" y="309" style="font-size:10px;font-weight:none;stroke:none; fill:#333399" text-anchor="left" /></g><g componentSequence="61"><text x="302" y="161" style="font-size:10px;font-weight:none;stroke:none; fill:#333399" text-anchor="left" /></g><g componentSequence="68"><text x="177" y="121" style="font-size:10px;font-weight:none;stroke:none; fill:#333399" text-anchor="left" /></g><g componentSequence="69"><text x="132" y="125" style="font-size:10px;font-weight:none;stroke:none; fill:#333399" text-anchor="left" /></g><g componentSequence="70"><text x="540" y="165" style="font-size:10px;font-weight:none;stroke:none; fill:#333399" text-anchor="left" /></g><g componentSequence="71"><text x="432" y="244" style="font-size:10px;font-weight:none;stroke:none; fill:#333399" text-anchor="left" /></g><path style="fill:none; stroke:#000000;stroke-width:1" d="M194.0 167.0 L389.0 155.0" /><polygon style="fill:#000000; stroke:#000000;" points=" 379 151 389 155 379 161 381 155" /><path style="fill:none; stroke:#009600;stroke-width:1" d="M174.0 150.0 L159.0 91.0" /><polygon style="fill:#009600; stroke:#009600;" points=" 157 102 159 91 166 99 161 99" /><path style="fill:none; stroke:#000000;stroke-width:1" d="M163.0 157.0 L113.0 118.0 L144.0 86.0" /><polygon style="fill:#000000; stroke:#000000;" points=" 133 90 144 86 141 97 138 92" /><path style="fill:none; stroke:#000000;stroke-width:1" d="M609.0 155.0 L418.0 73.0 L193.0 161.0" /><polygon style="fill:#000000; stroke:#000000;" points=" 204 162 193 161 200 153 200 158" /><path style="fill:none; stroke:#000000;stroke-width:1" d="M663.0 139.0 L663.0 102.0" /><polygon style="fill:#000000; stroke:#000000;" points=" 658 112 663 102 668 112 663 110" /><path style="fill:none; stroke:#000000;stroke-width:1" d="M661.0 216.0 L659.0 308.0 L476.0 309.0" /><polygon style="fill:#000000; stroke:#000000;" points=" 486 314 476 309 486 304 484 309" /><path style="fill:none; stroke:#000000;stroke-width:1" d="M716.0 177.0 L860.0 177.0" /><polygon style="fill:#000000; stroke:#000000;" points=" 850 172 860 177 850 182 852 177" /><path style="fill:none; stroke:#000000;stroke-width:1" d="M663.0 102.0 L663.0 139.0" /><polygon style="fill:#000000; stroke:#000000;" points=" 668 129 663 139 658 129 663 131" /><path style="fill:none; stroke:#000000;stroke-width:1" d="M476.0 309.0 L657.0 309.0 L661.0 216.0" /><polygon style="fill:#000000; stroke:#000000;" points=" 656 226 661 216 666 226 661 224" /><path style="fill:none; stroke:#000000;stroke-width:1" d="M450.0 157.0 L609.0 172.0" /><polygon style="fill:#000000; stroke:#000000;" points=" 600 166 609 172 599 176 601 171" /><path style="fill:none; stroke:#000000;stroke-width:1" d="M423.0 340.0 L423.0 428.0" /><polygon style="fill:#000000; stroke:#000000;" points=" 428 418 423 428 418 418 423 420" /><path style="fill:none; stroke:#000000;stroke-width:1" d="M421.0 208.0 L422.0 279.0" /><polygon style="fill:#000000; stroke:#000000;" points=" 427 269 422 279 417 269 422 271" /><path style="fill:none; stroke:#000000;stroke-width:1" d="M476.0 460.0 L599.0 465.0" /><polygon style="fill:#000000; stroke:#000000;" points=" 589 460 599 465 589 470 591 465" /><path style="fill:none; stroke:#000000;stroke-width:1" d="M369.0 459.0 L216.0 459.0" /><polygon style="fill:#000000; stroke:#000000;" points=" 226 464 216 459 226 454 224 459" /><path style="fill:none; stroke:#000000;stroke-width:1" d="M216.0 459.0 L369.0 459.0" /><polygon style="fill:#000000; stroke:#000000;" points=" 359 454 369 459 359 464 361 459" /><path style="fill:none; stroke:#000000;stroke-width:1" d="M706.0 463.0 L810.0 457.0" /><polygon style="fill:#000000; stroke:#000000;" points=" 800 453 810 457 800 463 802 457" /><defs><linearGradient xmlns:xlink="http://www.w3.org/1999/xlink" xlink:href="#linearGradient66FF6696FF96B6FFB6" id="linearGradient66FF6696FF96B6FFB6_918808189" x1="0" y1="150.0" x2="0" y2="185.0" gradientUnits="userSpaceOnUse" xlink:type="simple" xlink:actuate="onLoad" xlink:show="other" /><linearGradient id="linearGradient66FF6696FF96B6FFB6"><stop style="stop-color:#66FF66;stop-opacity:1;" offset="0.0" id="stop66FF66" /><stop style="stop-color:#96FF96;stop-opacity:1;" offset="0.5" id="stop96FF96" /><stop style="stop-color:#B6FFB6;stop-opacity:1;" offset="1.0" id="stopB6FFB6" /></linearGradient><linearGradient xmlns:xlink="http://www.w3.org/1999/xlink" xlink:href="#linearGradientF8FBFEEDF5FCDEEDFAD4E7F8E2E5E9" id="linearGradientF8FBFEEDF5FCDEEDFAD4E7F8E2E5E9_939790037" x1="0" y1="140.0" x2="0" y2="246.0" gradientUnits="userSpaceOnUse" xlink:type="simple" xlink:actuate="onLoad" xlink:show="other" /><linearGradient id="linearGradientF8FBFEEDF5FCDEEDFAD4E7F8E2E5E9"><stop style="stop-color:#F8FBFE;stop-opacity:1;" offset="0.0" id="stopF8FBFE" /><stop style="stop-color:#EDF5FC;stop-opacity:1;" offset="0.25" id="stopEDF5FC" /><stop style="stop-color:#DEEDFA;stop-opacity:1;" offset="0.5" id="stopDEEDFA" /><stop style="stop-color:#D4E7F8;stop-opacity:1;" offset="0.75" id="stopD4E7F8" /><stop style="stop-color:#E2E5E9;stop-opacity:1;" offset="1.0" id="stopE2E5E9" /></linearGradient><linearGradient xmlns:xlink="http://www.w3.org/1999/xlink" xlink:href="#linearGradientF8FBFEEDF5FCDEEDFAD4E7F8E2E5E9" id="linearGradientF8FBFEEDF5FCDEEDFAD4E7F8E2E5E9_1010535693" x1="0" y1="280.0" x2="0" y2="386.0" gradientUnits="userSpaceOnUse" xlink:type="simple" xlink:actuate="onLoad" xlink:show="other" /><linearGradient xmlns:xlink="http://www.w3.org/1999/xlink" xlink:href="#linearGradientF8FBFEEDF5FCDEEDFAD4E7F8E2E5E9" id="linearGradientF8FBFEEDF5FCDEEDFAD4E7F8E2E5E9_2033779950" x1="0" y1="429.0" x2="0" y2="535.0" gradientUnits="userSpaceOnUse" xlink:type="simple" xlink:actuate="onLoad" xlink:show="other" /><linearGradient xmlns:xlink="http://www.w3.org/1999/xlink" xlink:href="#linearGradientF8FBFEEDF5FCDEEDFAD4E7F8E2E5E9" id="linearGradientF8FBFEEDF5FCDEEDFAD4E7F8E2E5E9_1348531642" x1="0" y1="429.0" x2="0" y2="535.0" gradientUnits="userSpaceOnUse" xlink:type="simple" xlink:actuate="onLoad" xlink:show="other" /><linearGradient xmlns:xlink="http://www.w3.org/1999/xlink" xlink:href="#linearGradientFF6666FF9696FFB6B6" id="linearGradientFF6666FF9696FFB6B6_1208630213" x1="0" y1="439.0" x2="0" y2="474.0" gradientUnits="userSpaceOnUse" xlink:type="simple" xlink:actuate="onLoad" xlink:show="other" /><linearGradient id="linearGradientFF6666FF9696FFB6B6"><stop style="stop-color:#FF6666;stop-opacity:1;" offset="0.0" id="stopFF6666" /><stop style="stop-color:#FF9696;stop-opacity:1;" offset="0.5" id="stopFF9696" /><stop style="stop-color:#FFB6B6;stop-opacity:1;" offset="1.0" id="stopFFB6B6" /></linearGradient><linearGradient xmlns:xlink="http://www.w3.org/1999/xlink" xlink:href="#linearGradientF8FBFEEDF5FCDEEDFAD4E7F8E2E5E9" id="linearGradientF8FBFEEDF5FCDEEDFAD4E7F8E2E5E9_683250732" x1="0" y1="10.0" x2="0" y2="116.0" gradientUnits="userSpaceOnUse" xlink:type="simple" xlink:actuate="onLoad" xlink:show="other" /><linearGradient xmlns:xlink="http://www.w3.org/1999/xlink" xlink:href="#linearGradientF8FBFEEDF5FCDEEDFAD4E7F8E2E5E9" id="linearGradientF8FBFEEDF5FCDEEDFAD4E7F8E2E5E9_420936609" x1="0" y1="422.0" x2="0" y2="528.0" gradientUnits="userSpaceOnUse" xlink:type="simple" xlink:actuate="onLoad" xlink:show="other" /><linearGradient xmlns:xlink="http://www.w3.org/1999/xlink" xlink:href="#linearGradientFF6666FF9696FFB6B6" id="linearGradientFF6666FF9696FFB6B6_1309409308" x1="0" y1="160.0" x2="0" y2="195.0" gradientUnits="userSpaceOnUse" xlink:type="simple" xlink:actuate="onLoad" xlink:show="other" /><linearGradient xmlns:xlink="http://www.w3.org/1999/xlink" xlink:href="#linearGradientFAFBFCFFFFCC" id="linearGradientFAFBFCFFFFCC_1463930379" x1="0" y1="100.0" x2="0" y2="160.0" gradientUnits="userSpaceOnUse" xlink:type="simple" xlink:actuate="onLoad" xlink:show="other" /><linearGradient id="linearGradientFAFBFCFFFFCC"><stop style="stop-color:#FAFBFC;stop-opacity:1;" offset="0.0" id="stopFAFBFC" /><stop style="stop-color:#FFFFCC;stop-opacity:1;" offset="1.0" id="stopFFFFCC" /></linearGradient><linearGradient xmlns:xlink="http://www.w3.org/1999/xlink" xlink:href="#linearGradientFF6666FF9696FFB6B6" id="linearGradientFF6666FF9696FFB6B6_868038715" x1="0" y1="57.0" x2="0" y2="92.0" gradientUnits="userSpaceOnUse" xlink:type="simple" xlink:actuate="onLoad" xlink:show="other" /></defs></svg>
