<?xml version="1.0" encoding="UTF-8"?>
<svg xmlns="http://www.w3.org/2000/svg" style="stroke-dasharray:none; shape-rendering:auto; font-family:'Arial'; text-rendering:auto; fill-opacity:1; color-interpolation:auto; color-rendering:auto; font-size:12; fill:black; stroke:black; image-rendering:auto; stroke-miterlimit:10; stroke-linecap:square; stroke-linejoin:miter; font-style:normal; stroke-width:1; stroke-dashoffset:0; font-weight:normal; stroke-opacity:1;" contentScriptType="text/ecmascript" preserveAspectRatio="xMidYMid meet" zoomAndPan="magnify" version="1.0" contentStyleType="text/css" xml:xlink="http://www.w3.org/1999/xlink" width="1061" height="481"><rect x="0" y="4" width="1061" height="477" ry="0" rx="0" style="stroke:#000000; fill:#FFFFFF" /><rect x="30" y="242" width="1031" height="239" ry="0" rx="0" style="stroke:#000000; fill:#82B0B7" /><g componentSequence="2"><text x="-361" y="38" transform="rotate(270)" text-anchor="middle" style="font-weight:bold;font-size:10px;stroke:none; fill:#434343"><tspan dy="14" x="-361">Marketing</tspan></text></g><rect x="30" y="4" width="1031" height="238" ry="0" rx="0" style="stroke:#000000; fill:#9FC1C6" /><g componentSequence="1"><text x="-123" y="38" transform="rotate(270)" text-anchor="middle" style="font-weight:bold;font-size:10px;stroke:none; fill:#434343"><tspan dy="14" x="-123">Solicitante</tspan></text></g><g componentSequence="32"><text x="-242" y="8" transform="rotate(270)" text-anchor="middle" style="font-weight:bold;font-size:10px;stroke:none; fill:#434343"><tspan dy="14" x="-242">Solicitação de Arte</tspan></text></g><g sequence="3"><ellipse cx="137" cy="77" rx="17" ry="17" stroke-width="1" style="fill:url(#linearGradient66FF6696FF96B6FFB6_1118381018);" stroke="336633" /></g><g sequence="4"><rect x="190" y="334" width="106" height="60" ry="5" rx="5" style="fill:url(#linearGradientF8FBFEEDF5FCDEEDFAD4E7F8E2E5E9_1282328063);" stroke="191970" /></g><g componentSequence="4"><text x="243" y="353" text-anchor="middle" style="font-weight:bold;font-size:10px;stroke:none; fill:#333399"><tspan dy="14" x="243">Triagem</tspan></text></g><g sequence="5"><rect x="410" y="326" width="106" height="76" ry="5" rx="5" style="fill:url(#linearGradientF8FBFEEDF5FCDEEDFAD4E7F8E2E5E9_1213286570);" stroke="191970" /></g><g componentSequence="5"><text x="463" y="341" text-anchor="middle" style="font-weight:bold;font-size:10px;stroke:none; fill:#333399"><tspan dy="14" x="463">Em</tspan><tspan dy="14" x="463">atendimento</tspan></text></g><g sequence="6"><rect x="410" y="80" width="106" height="92" ry="5" rx="5" style="fill:url(#linearGradientF8FBFEEDF5FCDEEDFAD4E7F8E2E5E9_223596484);" stroke="191970" /></g><g componentSequence="6"><text x="463" y="95" text-anchor="middle" style="font-weight:bold;font-size:10px;stroke:none; fill:#333399"><tspan dy="14" x="463">Pendência ao</tspan><tspan dy="14" x="463">solicitante</tspan></text></g><g sequence="7"><rect x="680" y="88" width="106" height="76" ry="5" rx="5" style="fill:url(#linearGradientF8FBFEEDF5FCDEEDFAD4E7F8E2E5E9_107973191);" stroke="191970" /></g><g componentSequence="7"><text x="733" y="115" text-anchor="middle" style="font-weight:bold;font-size:10px;stroke:none; fill:#333399"><tspan dy="14" x="733">Em validação</tspan></text></g><g sequence="8"><ellipse cx="937" cy="125" rx="17" ry="17" stroke-width="3" style="fill:url(#linearGradientFF6666FF9696FFB6B6_1008002632);" stroke="993333" /></g><g sequence="17"><rect x="190" y="88" width="106" height="76" ry="5" rx="5" style="fill:url(#linearGradientF8FBFEEDF5FCDEEDFAD4E7F8E2E5E9_2126708088);" stroke="191970" /></g><g componentSequence="17"><text x="243" y="103" text-anchor="middle" style="font-weight:bold;font-size:10px;stroke:none; fill:#333399"><tspan dy="14" x="243">Pendência ao</tspan><tspan dy="14" x="243">solicitante</tspan></text></g><g sequence="20"><rect x="670" y="318" width="106" height="92" ry="5" rx="5" style="fill:url(#linearGradientF8FBFEEDF5FCDEEDFAD4E7F8E2E5E9_1836855435);" stroke="191970" /></g><g componentSequence="20"><text x="723" y="333" text-anchor="middle" style="font-weight:bold;font-size:10px;stroke:none; fill:#333399"><tspan dy="14" x="723">Atribuição</tspan><tspan dy="14" x="723">para outras</tspan><tspan dy="14" x="723">áreas</tspan></text></g><g sequence="23"><ellipse cx="927" cy="363" rx="17" ry="17" stroke-width="3" style="fill:url(#linearGradientFF6666FF9696FFB6B6_398172881);" stroke="993333" /></g><g sequence="25"><ellipse cx="357" cy="125" rx="17" ry="17" stroke-width="3" style="fill:url(#linearGradientFF6666FF9696FFB6B6_210116808);" stroke="993333" /></g><g componentSequence="9"><text x="147" y="256" style="font-size:10px;font-weight:none;stroke:none; fill:#333399" text-anchor="left" /></g><g componentSequence="11"><text x="363" y="364" style="font-size:10px;font-weight:none;stroke:none; fill:#333399" text-anchor="left" /></g><g componentSequence="12"><text x="473" y="249" style="font-size:10px;font-weight:none;stroke:none; fill:#333399" text-anchor="left" /></g><g componentSequence="13"><text x="473" y="249" style="font-size:10px;font-weight:none;stroke:none; fill:#333399" text-anchor="left" /></g><g componentSequence="14"><text x="687" y="295" style="font-size:10px;font-weight:none;stroke:none; fill:#333399" text-anchor="left" /></g><g componentSequence="15"><text x="688" y="296" style="font-size:10px;font-weight:none;stroke:none; fill:#333399" text-anchor="left" /></g><g componentSequence="16"><text x="863" y="125" style="font-size:10px;font-weight:none;stroke:none; fill:#333399" text-anchor="left" /></g><g componentSequence="18"><text x="253" y="249" style="font-size:10px;font-weight:none;stroke:none; fill:#333399" text-anchor="left" /></g><g componentSequence="19"><text x="253" y="249" style="font-size:10px;font-weight:none;stroke:none; fill:#333399" text-anchor="left" /></g><g componentSequence="21"><text x="603" y="364" style="font-size:10px;font-weight:none;stroke:none; fill:#333399" text-anchor="left" /></g><g componentSequence="22"><text x="603" y="364" style="font-size:10px;font-weight:none;stroke:none; fill:#333399" text-anchor="left" /></g><g componentSequence="24"><text x="853" y="363" style="font-size:10px;font-weight:none;stroke:none; fill:#333399" text-anchor="left" /></g><g componentSequence="26"><text x="328" y="125" style="font-size:10px;font-weight:none;stroke:none; fill:#333399" text-anchor="left" /></g><g componentSequence="27"><text x="402" y="125" style="font-size:10px;font-weight:none;stroke:none; fill:#333399" text-anchor="left" /></g><g componentSequence="28"><text x="853" y="363" style="font-size:10px;font-weight:none;stroke:none; fill:#333399" text-anchor="left" /></g><g componentSequence="29"><text x="863" y="125" style="font-size:10px;font-weight:none;stroke:none; fill:#333399" text-anchor="left" /></g><g componentSequence="30"><text x="402" y="125" style="font-size:10px;font-weight:none;stroke:none; fill:#333399" text-anchor="left" /></g><g componentSequence="31"><text x="328" y="125" style="font-size:10px;font-weight:none;stroke:none; fill:#333399" text-anchor="left" /></g><path style="fill:none; stroke:#000000;stroke-width:1" d="M137.0 95.0 L137.0 364.0 L189.0 364.0" /><polygon style="fill:#000000; stroke:#000000;" points=" 179 359 189 364 179 369 181 364" /><path style="fill:none; stroke:#000000;stroke-width:1" d="M296.0 364.0 L409.0 364.0" /><polygon style="fill:#000000; stroke:#000000;" points=" 399 359 409 364 399 369 401 364" /><path style="fill:none; stroke:#000000;stroke-width:1" d="M243.0 333.0 L243.0 164.0" /><polygon style="fill:#000000; stroke:#000000;" points=" 238 174 243 164 248 174 243 172" /><path style="fill:none; stroke:#000000;stroke-width:1" d="M243.0 164.0 L243.0 333.0" /><polygon style="fill:#000000; stroke:#000000;" points=" 248 323 243 333 238 323 243 325" /><path style="fill:none; stroke:#000000;stroke-width:1" d="M463.0 325.0 L463.0 172.0" /><polygon style="fill:#000000; stroke:#000000;" points=" 458 182 463 172 468 182 463 180" /><path style="fill:none; stroke:#000000;stroke-width:1" d="M516.0 346.0 L730.0 278.0 L732.0 164.0" /><polygon style="fill:#000000; stroke:#000000;" points=" 727 174 732 164 737 174 732 172" /><path style="fill:none; stroke:#000000;stroke-width:1" d="M516.0 364.0 L669.0 364.0" /><polygon style="fill:#000000; stroke:#000000;" points=" 659 359 669 364 659 369 661 364" /><path style="fill:none; stroke:#000000;stroke-width:1" d="M463.0 172.0 L463.0 325.0" /><polygon style="fill:#000000; stroke:#000000;" points=" 468 315 463 325 458 315 463 317" /><path style="fill:none; stroke:#000000;stroke-width:1" d="M732.0 164.0 L729.0 280.0 L516.0 347.0" /><polygon style="fill:#000000; stroke:#000000;" points=" 527 349 516 347 524 339 524 345" /><path style="fill:none; stroke:#000000;stroke-width:1" d="M669.0 364.0 L516.0 364.0" /><polygon style="fill:#000000; stroke:#000000;" points=" 526 369 516 364 526 359 524 364" /><path style="fill:none; stroke:#009600;stroke-width:1" d="M409.0 125.0 L374.0 125.0" /><polygon style="fill:#009600; stroke:#009600;" points=" 384 130 374 125 384 120 382 125" /><path style="fill:none; stroke:#000000;stroke-width:1" d="M409.0 125.0 L374.0 125.0" /><polygon style="fill:#000000; stroke:#000000;" points=" 384 130 374 125 384 120 382 125" /><path style="fill:none; stroke:#009600;stroke-width:1" d="M786.0 125.0 L920.0 125.0" /><polygon style="fill:#009600; stroke:#009600;" points=" 910 120 920 125 910 130 912 125" /><path style="fill:none; stroke:#000000;stroke-width:1" d="M786.0 125.0 L920.0 125.0" /><polygon style="fill:#000000; stroke:#000000;" points=" 910 120 920 125 910 130 912 125" /><path style="fill:none; stroke:#009600;stroke-width:1" d="M296.0 125.0 L340.0 125.0" /><polygon style="fill:#009600; stroke:#009600;" points=" 330 120 340 125 330 130 332 125" /><path style="fill:none; stroke:#000000;stroke-width:1" d="M296.0 125.0 L340.0 125.0" /><polygon style="fill:#000000; stroke:#000000;" points=" 330 120 340 125 330 130 332 125" /><path style="fill:none; stroke:#009600;stroke-width:1" d="M776.0 363.0 L910.0 363.0" /><polygon style="fill:#009600; stroke:#009600;" points=" 900 358 910 363 900 368 902 363" /><path style="fill:none; stroke:#000000;stroke-width:1" d="M776.0 363.0 L910.0 363.0" /><polygon style="fill:#000000; stroke:#000000;" points=" 900 358 910 363 900 368 902 363" /><defs><linearGradient xmlns:xlink="http://www.w3.org/1999/xlink" xlink:href="#linearGradient66FF6696FF96B6FFB6" id="linearGradient66FF6696FF96B6FFB6_1118381018" x1="0" y1="60.0" x2="0" y2="95.0" gradientUnits="userSpaceOnUse" xlink:type="simple" xlink:actuate="onLoad" xlink:show="other" /><linearGradient id="linearGradient66FF6696FF96B6FFB6"><stop style="stop-color:#66FF66;stop-opacity:1;" offset="0.0" id="stop66FF66" /><stop style="stop-color:#96FF96;stop-opacity:1;" offset="0.5" id="stop96FF96" /><stop style="stop-color:#B6FFB6;stop-opacity:1;" offset="1.0" id="stopB6FFB6" /></linearGradient><linearGradient xmlns:xlink="http://www.w3.org/1999/xlink" xlink:href="#linearGradientF8FBFEEDF5FCDEEDFAD4E7F8E2E5E9" id="linearGradientF8FBFEEDF5FCDEEDFAD4E7F8E2E5E9_1282328063" x1="0" y1="334.0" x2="0" y2="440.0" gradientUnits="userSpaceOnUse" xlink:type="simple" xlink:actuate="onLoad" xlink:show="other" /><linearGradient id="linearGradientF8FBFEEDF5FCDEEDFAD4E7F8E2E5E9"><stop style="stop-color:#F8FBFE;stop-opacity:1;" offset="0.0" id="stopF8FBFE" /><stop style="stop-color:#EDF5FC;stop-opacity:1;" offset="0.25" id="stopEDF5FC" /><stop style="stop-color:#DEEDFA;stop-opacity:1;" offset="0.5" id="stopDEEDFA" /><stop style="stop-color:#D4E7F8;stop-opacity:1;" offset="0.75" id="stopD4E7F8" /><stop style="stop-color:#E2E5E9;stop-opacity:1;" offset="1.0" id="stopE2E5E9" /></linearGradient><linearGradient xmlns:xlink="http://www.w3.org/1999/xlink" xlink:href="#linearGradientF8FBFEEDF5FCDEEDFAD4E7F8E2E5E9" id="linearGradientF8FBFEEDF5FCDEEDFAD4E7F8E2E5E9_1213286570" x1="0" y1="326.0" x2="0" y2="432.0" gradientUnits="userSpaceOnUse" xlink:type="simple" xlink:actuate="onLoad" xlink:show="other" /><linearGradient xmlns:xlink="http://www.w3.org/1999/xlink" xlink:href="#linearGradientF8FBFEEDF5FCDEEDFAD4E7F8E2E5E9" id="linearGradientF8FBFEEDF5FCDEEDFAD4E7F8E2E5E9_223596484" x1="0" y1="80.0" x2="0" y2="186.0" gradientUnits="userSpaceOnUse" xlink:type="simple" xlink:actuate="onLoad" xlink:show="other" /><linearGradient xmlns:xlink="http://www.w3.org/1999/xlink" xlink:href="#linearGradientF8FBFEEDF5FCDEEDFAD4E7F8E2E5E9" id="linearGradientF8FBFEEDF5FCDEEDFAD4E7F8E2E5E9_107973191" x1="0" y1="88.0" x2="0" y2="194.0" gradientUnits="userSpaceOnUse" xlink:type="simple" xlink:actuate="onLoad" xlink:show="other" /><linearGradient xmlns:xlink="http://www.w3.org/1999/xlink" xlink:href="#linearGradientFF6666FF9696FFB6B6" id="linearGradientFF6666FF9696FFB6B6_1008002632" x1="0" y1="108.0" x2="0" y2="143.0" gradientUnits="userSpaceOnUse" xlink:type="simple" xlink:actuate="onLoad" xlink:show="other" /><linearGradient id="linearGradientFF6666FF9696FFB6B6"><stop style="stop-color:#FF6666;stop-opacity:1;" offset="0.0" id="stopFF6666" /><stop style="stop-color:#FF9696;stop-opacity:1;" offset="0.5" id="stopFF9696" /><stop style="stop-color:#FFB6B6;stop-opacity:1;" offset="1.0" id="stopFFB6B6" /></linearGradient><linearGradient xmlns:xlink="http://www.w3.org/1999/xlink" xlink:href="#linearGradientF8FBFEEDF5FCDEEDFAD4E7F8E2E5E9" id="linearGradientF8FBFEEDF5FCDEEDFAD4E7F8E2E5E9_2126708088" x1="0" y1="88.0" x2="0" y2="194.0" gradientUnits="userSpaceOnUse" xlink:type="simple" xlink:actuate="onLoad" xlink:show="other" /><linearGradient xmlns:xlink="http://www.w3.org/1999/xlink" xlink:href="#linearGradientF8FBFEEDF5FCDEEDFAD4E7F8E2E5E9" id="linearGradientF8FBFEEDF5FCDEEDFAD4E7F8E2E5E9_1836855435" x1="0" y1="318.0" x2="0" y2="424.0" gradientUnits="userSpaceOnUse" xlink:type="simple" xlink:actuate="onLoad" xlink:show="other" /><linearGradient xmlns:xlink="http://www.w3.org/1999/xlink" xlink:href="#linearGradientFF6666FF9696FFB6B6" id="linearGradientFF6666FF9696FFB6B6_398172881" x1="0" y1="346.0" x2="0" y2="381.0" gradientUnits="userSpaceOnUse" xlink:type="simple" xlink:actuate="onLoad" xlink:show="other" /><linearGradient xmlns:xlink="http://www.w3.org/1999/xlink" xlink:href="#linearGradientFF6666FF9696FFB6B6" id="linearGradientFF6666FF9696FFB6B6_210116808" x1="0" y1="108.0" x2="0" y2="143.0" gradientUnits="userSpaceOnUse" xlink:type="simple" xlink:actuate="onLoad" xlink:show="other" /></defs></svg>
