<?xml version="1.0" encoding="UTF-8"?>
<svg xmlns="http://www.w3.org/2000/svg" style="stroke-dasharray:none; shape-rendering:auto; font-family:'Arial'; text-rendering:auto; fill-opacity:1; color-interpolation:auto; color-rendering:auto; font-size:12; fill:black; stroke:black; image-rendering:auto; stroke-miterlimit:10; stroke-linecap:square; stroke-linejoin:miter; font-style:normal; stroke-width:1; stroke-dashoffset:0; font-weight:normal; stroke-opacity:1;" contentScriptType="text/ecmascript" preserveAspectRatio="xMidYMid meet" zoomAndPan="magnify" version="1.0" contentStyleType="text/css" xml:xlink="http://www.w3.org/1999/xlink" width="1171" height="541"><rect x="10" y="10" width="1161" height="531" ry="0" rx="0" style="stroke:#000000; fill:#FFFFFF" /><rect x="40" y="187" width="1131" height="177" ry="0" rx="0" style="stroke:#000000; fill:#82B0B7" /><g componentSequence="4"><text x="-275" y="48" transform="rotate(270)" text-anchor="middle" style="font-weight:bold;font-size:10px;stroke:none; fill:#434343"><tspan dy="14" x="-275">Relacionamento</tspan></text></g><rect x="40" y="364" width="1131" height="177" ry="0" rx="0" style="stroke:#000000; fill:#C0C0C0" /><g componentSequence="3"><text x="-452" y="48" transform="rotate(270)" text-anchor="middle" style="font-weight:bold;font-size:10px;stroke:none; fill:#434343"><tspan dy="14" x="-452">Diretoria</tspan></text></g><rect x="40" y="10" width="1131" height="177" ry="0" rx="0" style="stroke:#000000; fill:#9F9F9F" /><g componentSequence="2"><text x="-98" y="48" transform="rotate(270)" text-anchor="middle" style="font-weight:bold;font-size:10px;stroke:none; fill:#434343"><tspan dy="14" x="-98">Inicio público</tspan></text></g><g componentSequence="1"><text x="-275" y="18" transform="rotate(270)" text-anchor="middle" style="font-weight:bold;font-size:10px;stroke:none; fill:#434343"><tspan dy="14" x="-275">Pool</tspan></text></g><g sequence="4"><ellipse cx="167" cy="99" rx="17" ry="17" stroke-width="1" style="fill:url(#linearGradient66FF6696FF96B6FFB6_1162935056);" stroke="336633" /></g><g sequence="5"><rect x="260" y="199" width="106" height="60" ry="5" rx="5" style="fill:url(#linearGradientF8FBFEEDF5FCDEEDFAD4E7F8E2E5E9_1268194762);" stroke="191970" /></g><g componentSequence="5"><text x="313" y="218" text-anchor="middle" style="font-weight:bold;font-size:10px;stroke:none; fill:#333399"><tspan dy="14" x="313">Em Analise</tspan></text></g><g sequence="11"><rect x="260" y="395" width="106" height="60" ry="5" rx="5" style="fill:url(#linearGradientF8FBFEEDF5FCDEEDFAD4E7F8E2E5E9_1336447072);" stroke="191970" /></g><g componentSequence="11"><text x="313" y="414" text-anchor="middle" style="font-weight:bold;font-size:10px;stroke:none; fill:#333399"><tspan dy="14" x="313">Em Apuração</tspan></text></g><g sequence="13"><rect x="480" y="390" width="106" height="76" ry="5" rx="5" style="fill:url(#linearGradientF8FBFEEDF5FCDEEDFAD4E7F8E2E5E9_178919409);" stroke="191970" /></g><g componentSequence="13"><text x="533" y="405" text-anchor="middle" style="font-weight:bold;font-size:10px;stroke:none; fill:#333399"><tspan dy="14" x="533">Plano de</tspan><tspan dy="14" x="533">Ação</tspan></text></g><g sequence="15"><rect x="480" y="200" width="106" height="60" ry="5" rx="5" style="fill:url(#linearGradientF8FBFEEDF5FCDEEDFAD4E7F8E2E5E9_1214309839);" stroke="191970" /></g><g componentSequence="15"><text x="533" y="219" text-anchor="middle" style="font-weight:bold;font-size:10px;stroke:none; fill:#333399"><tspan dy="14" x="533">Tratativa</tspan></text></g><g sequence="18"><rect x="680" y="190" width="106" height="76" ry="5" rx="5" style="fill:url(#linearGradientF8FBFEEDF5FCDEEDFAD4E7F8E2E5E9_1005246532);" stroke="191970" /></g><g componentSequence="18"><text x="733" y="205" text-anchor="middle" style="font-weight:bold;font-size:10px;stroke:none; fill:#333399"><tspan dy="14" x="733">Execução do</tspan><tspan dy="14" x="733">Plano</tspan></text></g><g sequence="20"><rect x="680" y="390" width="106" height="76" ry="5" rx="5" style="fill:url(#linearGradientF8FBFEEDF5FCDEEDFAD4E7F8E2E5E9_818574537);" stroke="191970" /></g><g componentSequence="20"><text x="733" y="405" text-anchor="middle" style="font-weight:bold;font-size:10px;stroke:none; fill:#333399"><tspan dy="14" x="733">Finalização</tspan><tspan dy="14" x="733">do Processo</tspan></text></g><g sequence="22"><ellipse cx="977" cy="427" rx="17" ry="17" stroke-width="3" style="fill:url(#linearGradientFF6666FF9696FFB6B6_1787160766);" stroke="993333" /></g><g sequence="25"><rect x="260" y="460" width="106" height="76" ry="5" rx="5" style="fill:url(#linearGradientF8FBFEEDF5FCDEEDFAD4E7F8E2E5E9_629417660);" stroke="191970" /></g><g componentSequence="25"><text x="313" y="475" text-anchor="middle" style="font-weight:bold;font-size:10px;stroke:none; fill:#333399"><tspan dy="14" x="313">Diretoria</tspan><tspan dy="14" x="313">(Elogio)</tspan></text></g><g componentSequence="6"><text x="177" y="222" style="font-size:10px;font-weight:none;stroke:none; fill:#333399" text-anchor="left" /></g><g componentSequence="12"><text x="323" y="327" style="font-size:10px;font-weight:none;stroke:none; fill:#333399" text-anchor="left"><tspan dy="14" x="323">Enviar para Apuração</tspan></text></g><g componentSequence="14"><text x="433" y="426" style="font-size:10px;font-weight:none;stroke:none; fill:#333399" text-anchor="left" /></g><g componentSequence="16"><text x="511" y="324" style="font-size:10px;font-weight:none;stroke:none; fill:#333399" text-anchor="left" /></g><g componentSequence="17"><text x="584" y="324" style="font-size:10px;font-weight:none;stroke:none; fill:#333399" text-anchor="left" /></g><g componentSequence="19"><text x="643" y="229" style="font-size:10px;font-weight:none;stroke:none; fill:#333399" text-anchor="left" /></g><g componentSequence="21"><text x="743" y="328" style="font-size:10px;font-weight:none;stroke:none; fill:#333399" text-anchor="left" /></g><g componentSequence="23"><text x="883" y="427" style="font-size:10px;font-weight:none;stroke:none; fill:#333399" text-anchor="left" /></g><g componentSequence="24"><text x="761" y="68" style="font-size:10px;font-weight:none;stroke:none; fill:#333399" text-anchor="left" /></g><g componentSequence="26"><text x="174" y="366" style="font-size:10px;font-weight:none;stroke:none; fill:#333399" text-anchor="left" /></g><g componentSequence="27"><text x="709" y="499" style="font-size:10px;font-weight:none;stroke:none; fill:#333399" text-anchor="left" /></g><path style="fill:none; stroke:#000000;stroke-width:1" d="M167.0 117.0 L167.0 235.0 L259.0 231.0" /><polygon style="fill:#000000; stroke:#000000;" points=" 249 226 259 231 249 236 251 231" /><path style="fill:none; stroke:#000000;stroke-width:1" d="M313.0 259.0 L313.0 394.0" /><polygon style="fill:#000000; stroke:#000000;" points=" 318 384 313 394 308 384 313 386" /><path style="fill:none; stroke:#000000;stroke-width:1" d="M313.0 198.0 L313.0 68.0 L977.0 68.0 L977.0 409.0" /><polygon style="fill:#000000; stroke:#000000;" points=" 982 399 977 409 972 399 977 401" /><path style="fill:none; stroke:#000000;stroke-width:1" d="M259.0 229.0 L165.0 231.0 L164.0 500.0 L259.0 498.0" /><polygon style="fill:#000000; stroke:#000000;" points=" 249 493 259 498 249 503 251 498" /><path style="fill:none; stroke:#000000;stroke-width:1" d="M366.0 425.0 L479.0 427.0" /><polygon style="fill:#000000; stroke:#000000;" points=" 469 422 479 427 469 432 471 427" /><path style="fill:none; stroke:#000000;stroke-width:1" d="M521.0 389.0 L498.0 314.0 L520.0 260.0" /><polygon style="fill:#000000; stroke:#000000;" points=" 512 267 520 260 521 271 517 267" /><path style="fill:none; stroke:#000000;stroke-width:1" d="M547.0 260.0 L575.0 320.0 L548.0 389.0" /><polygon style="fill:#000000; stroke:#000000;" points=" 556 382 548 389 547 378 551 382" /><path style="fill:none; stroke:#000000;stroke-width:1" d="M586.0 229.0 L679.0 228.0" /><polygon style="fill:#000000; stroke:#000000;" points=" 669 223 679 228 669 233 671 228" /><path style="fill:none; stroke:#000000;stroke-width:1" d="M733.0 266.0 L733.0 389.0" /><polygon style="fill:#000000; stroke:#000000;" points=" 738 379 733 389 728 379 733 381" /><path style="fill:none; stroke:#000000;stroke-width:1" d="M786.0 427.0 L960.0 427.0" /><polygon style="fill:#000000; stroke:#000000;" points=" 950 422 960 427 950 432 952 427" /><path style="fill:none; stroke:#000000;stroke-width:1" d="M366.0 498.0 L977.0 500.0 L977.0 445.0" /><polygon style="fill:#000000; stroke:#000000;" points=" 972 455 977 445 982 455 977 453" /><defs><linearGradient xmlns:xlink="http://www.w3.org/1999/xlink" xlink:href="#linearGradient66FF6696FF96B6FFB6" id="linearGradient66FF6696FF96B6FFB6_1162935056" x1="0" y1="82.0" x2="0" y2="117.0" gradientUnits="userSpaceOnUse" xlink:type="simple" xlink:actuate="onLoad" xlink:show="other" /><linearGradient id="linearGradient66FF6696FF96B6FFB6"><stop style="stop-color:#66FF66;stop-opacity:1;" offset="0.0" id="stop66FF66" /><stop style="stop-color:#96FF96;stop-opacity:1;" offset="0.5" id="stop96FF96" /><stop style="stop-color:#B6FFB6;stop-opacity:1;" offset="1.0" id="stopB6FFB6" /></linearGradient><linearGradient xmlns:xlink="http://www.w3.org/1999/xlink" xlink:href="#linearGradientF8FBFEEDF5FCDEEDFAD4E7F8E2E5E9" id="linearGradientF8FBFEEDF5FCDEEDFAD4E7F8E2E5E9_1268194762" x1="0" y1="199.0" x2="0" y2="305.0" gradientUnits="userSpaceOnUse" xlink:type="simple" xlink:actuate="onLoad" xlink:show="other" /><linearGradient id="linearGradientF8FBFEEDF5FCDEEDFAD4E7F8E2E5E9"><stop style="stop-color:#F8FBFE;stop-opacity:1;" offset="0.0" id="stopF8FBFE" /><stop style="stop-color:#EDF5FC;stop-opacity:1;" offset="0.25" id="stopEDF5FC" /><stop style="stop-color:#DEEDFA;stop-opacity:1;" offset="0.5" id="stopDEEDFA" /><stop style="stop-color:#D4E7F8;stop-opacity:1;" offset="0.75" id="stopD4E7F8" /><stop style="stop-color:#E2E5E9;stop-opacity:1;" offset="1.0" id="stopE2E5E9" /></linearGradient><linearGradient xmlns:xlink="http://www.w3.org/1999/xlink" xlink:href="#linearGradientF8FBFEEDF5FCDEEDFAD4E7F8E2E5E9" id="linearGradientF8FBFEEDF5FCDEEDFAD4E7F8E2E5E9_1336447072" x1="0" y1="395.0" x2="0" y2="501.0" gradientUnits="userSpaceOnUse" xlink:type="simple" xlink:actuate="onLoad" xlink:show="other" /><linearGradient xmlns:xlink="http://www.w3.org/1999/xlink" xlink:href="#linearGradientF8FBFEEDF5FCDEEDFAD4E7F8E2E5E9" id="linearGradientF8FBFEEDF5FCDEEDFAD4E7F8E2E5E9_178919409" x1="0" y1="390.0" x2="0" y2="496.0" gradientUnits="userSpaceOnUse" xlink:type="simple" xlink:actuate="onLoad" xlink:show="other" /><linearGradient xmlns:xlink="http://www.w3.org/1999/xlink" xlink:href="#linearGradientF8FBFEEDF5FCDEEDFAD4E7F8E2E5E9" id="linearGradientF8FBFEEDF5FCDEEDFAD4E7F8E2E5E9_1214309839" x1="0" y1="200.0" x2="0" y2="306.0" gradientUnits="userSpaceOnUse" xlink:type="simple" xlink:actuate="onLoad" xlink:show="other" /><linearGradient xmlns:xlink="http://www.w3.org/1999/xlink" xlink:href="#linearGradientF8FBFEEDF5FCDEEDFAD4E7F8E2E5E9" id="linearGradientF8FBFEEDF5FCDEEDFAD4E7F8E2E5E9_1005246532" x1="0" y1="190.0" x2="0" y2="296.0" gradientUnits="userSpaceOnUse" xlink:type="simple" xlink:actuate="onLoad" xlink:show="other" /><linearGradient xmlns:xlink="http://www.w3.org/1999/xlink" xlink:href="#linearGradientF8FBFEEDF5FCDEEDFAD4E7F8E2E5E9" id="linearGradientF8FBFEEDF5FCDEEDFAD4E7F8E2E5E9_818574537" x1="0" y1="390.0" x2="0" y2="496.0" gradientUnits="userSpaceOnUse" xlink:type="simple" xlink:actuate="onLoad" xlink:show="other" /><linearGradient xmlns:xlink="http://www.w3.org/1999/xlink" xlink:href="#linearGradientFF6666FF9696FFB6B6" id="linearGradientFF6666FF9696FFB6B6_1787160766" x1="0" y1="410.0" x2="0" y2="445.0" gradientUnits="userSpaceOnUse" xlink:type="simple" xlink:actuate="onLoad" xlink:show="other" /><linearGradient id="linearGradientFF6666FF9696FFB6B6"><stop style="stop-color:#FF6666;stop-opacity:1;" offset="0.0" id="stopFF6666" /><stop style="stop-color:#FF9696;stop-opacity:1;" offset="0.5" id="stopFF9696" /><stop style="stop-color:#FFB6B6;stop-opacity:1;" offset="1.0" id="stopFFB6B6" /></linearGradient><linearGradient xmlns:xlink="http://www.w3.org/1999/xlink" xlink:href="#linearGradientF8FBFEEDF5FCDEEDFAD4E7F8E2E5E9" id="linearGradientF8FBFEEDF5FCDEEDFAD4E7F8E2E5E9_629417660" x1="0" y1="460.0" x2="0" y2="566.0" gradientUnits="userSpaceOnUse" xlink:type="simple" xlink:actuate="onLoad" xlink:show="other" /></defs></svg>
