<?xml version="1.0" encoding="UTF-8"?>
<svg xmlns="http://www.w3.org/2000/svg" style="stroke-dasharray:none; shape-rendering:auto; font-family:'Arial'; text-rendering:auto; fill-opacity:1; color-interpolation:auto; color-rendering:auto; font-size:12; fill:black; stroke:black; image-rendering:auto; stroke-miterlimit:10; stroke-linecap:square; stroke-linejoin:miter; font-style:normal; stroke-width:1; stroke-dashoffset:0; font-weight:normal; stroke-opacity:1;" contentScriptType="text/ecmascript" preserveAspectRatio="xMidYMid meet" zoomAndPan="magnify" version="1.0" contentStyleType="text/css" xml:xlink="http://www.w3.org/1999/xlink" width="1171" height="661"><rect x="0" y="0" width="1171" height="661" ry="0" rx="0" style="stroke:#000000; fill:#FFFFFF" /><rect x="30" y="440" width="1141" height="221" ry="0" rx="0" style="stroke:#000000; fill:#ADC9AC" /><g componentSequence="17"><text x="-550" y="38" transform="rotate(270)" text-anchor="middle" style="font-weight:bold;font-size:10px;stroke:none; fill:#434343"><tspan dy="14" x="-550">Aprovação</tspan></text></g><rect x="30" y="220" width="1141" height="220" ry="0" rx="0" style="stroke:#000000; fill:#82B0B7" /><g componentSequence="2"><text x="-330" y="38" transform="rotate(270)" text-anchor="middle" style="font-weight:bold;font-size:10px;stroke:none; fill:#434343"><tspan dy="14" x="-330">Financeiro</tspan></text></g><rect x="30" y="0" width="1141" height="220" ry="0" rx="0" style="stroke:#000000; fill:#9FC1C6" /><g componentSequence="1"><text x="-110" y="38" transform="rotate(270)" text-anchor="middle" style="font-weight:bold;font-size:10px;stroke:none; fill:#434343"><tspan dy="14" x="-110">Solicitante</tspan></text></g><g componentSequence="24"><text x="-330" y="8" transform="rotate(270)" text-anchor="middle" style="font-weight:bold;font-size:10px;stroke:none; fill:#434343"><tspan dy="14" x="-330">Solicitação de uso Cartão de Crédito</tspan></text></g><g sequence="3"><ellipse cx="177" cy="112" rx="17" ry="17" stroke-width="1" style="fill:url(#linearGradient66FF6696FF96B6FFB6_1008519396);" stroke="336633" /></g><g sequence="4"><rect x="120" y="313" width="106" height="60" ry="5" rx="5" style="fill:url(#linearGradientF8FBFEEDF5FCDEEDFAD4E7F8E2E5E9_853221655);" stroke="191970" /></g><g componentSequence="4"><text x="173" y="332" text-anchor="middle" style="font-weight:bold;font-size:10px;stroke:none; fill:#333399"><tspan dy="14" x="173">Triagem</tspan></text></g><g sequence="5"><rect x="510" y="78" width="106" height="76" ry="5" rx="5" style="fill:url(#linearGradientF8FBFEEDF5FCDEEDFAD4E7F8E2E5E9_920953748);" stroke="191970" /></g><g componentSequence="5"><text x="563" y="93" text-anchor="middle" style="font-weight:bold;font-size:10px;stroke:none; fill:#333399"><tspan dy="14" x="563">Pendência ao</tspan><tspan dy="14" x="563">solicitante</tspan></text></g><g sequence="6"><rect x="510" y="305" width="106" height="76" ry="5" rx="5" style="fill:url(#linearGradientF8FBFEEDF5FCDEEDFAD4E7F8E2E5E9_1944464172);" stroke="191970" /></g><g componentSequence="6"><text x="563" y="320" text-anchor="middle" style="font-weight:bold;font-size:10px;stroke:none; fill:#333399"><tspan dy="14" x="563">Em</tspan><tspan dy="14" x="563">atendimento</tspan></text></g><g sequence="7"><rect x="870" y="78" width="106" height="76" ry="5" rx="5" style="fill:url(#linearGradientF8FBFEEDF5FCDEEDFAD4E7F8E2E5E9_703043164);" stroke="191970" /></g><g componentSequence="7"><text x="923" y="105" text-anchor="middle" style="font-weight:bold;font-size:10px;stroke:none; fill:#333399"><tspan dy="14" x="923">Em validação</tspan></text></g><g sequence="8"><ellipse cx="1127" cy="115" rx="17" ry="17" stroke-width="3" style="fill:url(#linearGradientFF6666FF9696FFB6B6_1121966574);" stroke="993333" /></g><g sequence="18"><rect x="120" y="532" width="106" height="76" ry="5" rx="5" style="fill:url(#linearGradientF8FBFEEDF5FCDEEDFAD4E7F8E2E5E9_1362377250);" stroke="191970" /></g><g componentSequence="18"><text x="173" y="547" text-anchor="middle" style="font-weight:bold;font-size:10px;stroke:none; fill:#333399"><tspan dy="14" x="173">Aprovação</tspan><tspan dy="14" x="173">CEO</tspan></text></g><g sequence="19"><ellipse cx="507" cy="569" rx="17" ry="17" stroke-width="3" style="fill:url(#linearGradientFF6666FF9696FFB6B6_331994211);" stroke="993333" /></g><g componentSequence="9"><text x="185" y="221" style="font-size:10px;font-weight:none;stroke:none; fill:#333399" text-anchor="left" /></g><g componentSequence="11"><text x="378" y="343" style="font-size:10px;font-weight:none;stroke:none; fill:#333399" text-anchor="left" /></g><g componentSequence="12"><text x="753" y="229" style="font-size:10px;font-weight:none;stroke:none; fill:#333399" text-anchor="left" /></g><g componentSequence="13"><text x="573" y="229" style="font-size:10px;font-weight:none;stroke:none; fill:#333399" text-anchor="left" /></g><g componentSequence="14"><text x="1053" y="115" style="font-size:10px;font-weight:none;stroke:none; fill:#333399" text-anchor="left" /></g><g componentSequence="15"><text x="573" y="229" style="font-size:10px;font-weight:none;stroke:none; fill:#333399" text-anchor="left" /></g><g componentSequence="16"><text x="753" y="229" style="font-size:10px;font-weight:none;stroke:none; fill:#333399" text-anchor="left" /></g><g componentSequence="20"><text x="368" y="569" style="font-size:10px;font-weight:none;stroke:none; fill:#333399" text-anchor="left" /></g><g componentSequence="21"><text x="183" y="452" style="font-size:10px;font-weight:none;stroke:none; fill:#333399" text-anchor="left" /></g><g componentSequence="22"><text x="183" y="452" style="font-size:10px;font-weight:none;stroke:none; fill:#333399" text-anchor="left" /></g><g componentSequence="23"><text x="1053" y="115" style="font-size:10px;font-weight:none;stroke:none; fill:#333399" text-anchor="left" /></g><path style="fill:none; stroke:#000000;stroke-width:1" d="M177.0 129.0 L173.0 312.0" /><polygon style="fill:#000000; stroke:#000000;" points=" 178 302 173 312 168 302 173 304" /><path style="fill:none; stroke:#000000;stroke-width:1" d="M226.0 343.0 L509.0 343.0" /><polygon style="fill:#000000; stroke:#000000;" points=" 499 338 509 343 499 348 501 343" /><path style="fill:none; stroke:#000000;stroke-width:1" d="M173.0 373.0 L173.0 531.0" /><polygon style="fill:#000000; stroke:#000000;" points=" 178 521 173 531 168 521 173 523" /><path style="fill:none; stroke:#000000;stroke-width:1" d="M173.0 531.0 L173.0 373.0" /><polygon style="fill:#000000; stroke:#000000;" points=" 168 383 173 373 178 383 173 381" /><path style="fill:none; stroke:#000000;stroke-width:1" d="M563.0 154.0 L563.0 304.0" /><polygon style="fill:#000000; stroke:#000000;" points=" 568 294 563 304 558 294 563 296" /><path style="fill:none; stroke:#000000;stroke-width:1" d="M563.0 304.0 L563.0 154.0" /><polygon style="fill:#000000; stroke:#000000;" points=" 558 164 563 154 568 164 563 162" /><path style="fill:none; stroke:#000000;stroke-width:1" d="M616.0 309.0 L869.0 149.0" /><polygon style="fill:#000000; stroke:#000000;" points=" 858 150 869 149 863 159 862 153" /><path style="fill:none; stroke:#000000;stroke-width:1" d="M869.0 149.0 L616.0 309.0" /><polygon style="fill:#000000; stroke:#000000;" points=" 627 308 616 309 622 299 623 305" /><path style="fill:none; stroke:#009600;stroke-width:1" d="M976.0 115.0 L1110.0 115.0" /><polygon style="fill:#009600; stroke:#009600;" points=" 1100 110 1110 115 1100 120 1102 115" /><path style="fill:none; stroke:#000000;stroke-width:1" d="M976.0 115.0 L1110.0 115.0" /><polygon style="fill:#000000; stroke:#000000;" points=" 1100 110 1110 115 1100 120 1102 115" /><path style="fill:none; stroke:#000000;stroke-width:1" d="M226.0 569.0 L490.0 569.0" /><polygon style="fill:#000000; stroke:#000000;" points=" 480 564 490 569 480 574 482 569" /><defs><linearGradient xmlns:xlink="http://www.w3.org/1999/xlink" xlink:href="#linearGradient66FF6696FF96B6FFB6" id="linearGradient66FF6696FF96B6FFB6_1008519396" x1="0" y1="95.0" x2="0" y2="130.0" gradientUnits="userSpaceOnUse" xlink:type="simple" xlink:actuate="onLoad" xlink:show="other" /><linearGradient id="linearGradient66FF6696FF96B6FFB6"><stop style="stop-color:#66FF66;stop-opacity:1;" offset="0.0" id="stop66FF66" /><stop style="stop-color:#96FF96;stop-opacity:1;" offset="0.5" id="stop96FF96" /><stop style="stop-color:#B6FFB6;stop-opacity:1;" offset="1.0" id="stopB6FFB6" /></linearGradient><linearGradient xmlns:xlink="http://www.w3.org/1999/xlink" xlink:href="#linearGradientF8FBFEEDF5FCDEEDFAD4E7F8E2E5E9" id="linearGradientF8FBFEEDF5FCDEEDFAD4E7F8E2E5E9_853221655" x1="0" y1="313.0" x2="0" y2="419.0" gradientUnits="userSpaceOnUse" xlink:type="simple" xlink:actuate="onLoad" xlink:show="other" /><linearGradient id="linearGradientF8FBFEEDF5FCDEEDFAD4E7F8E2E5E9"><stop style="stop-color:#F8FBFE;stop-opacity:1;" offset="0.0" id="stopF8FBFE" /><stop style="stop-color:#EDF5FC;stop-opacity:1;" offset="0.25" id="stopEDF5FC" /><stop style="stop-color:#DEEDFA;stop-opacity:1;" offset="0.5" id="stopDEEDFA" /><stop style="stop-color:#D4E7F8;stop-opacity:1;" offset="0.75" id="stopD4E7F8" /><stop style="stop-color:#E2E5E9;stop-opacity:1;" offset="1.0" id="stopE2E5E9" /></linearGradient><linearGradient xmlns:xlink="http://www.w3.org/1999/xlink" xlink:href="#linearGradientF8FBFEEDF5FCDEEDFAD4E7F8E2E5E9" id="linearGradientF8FBFEEDF5FCDEEDFAD4E7F8E2E5E9_920953748" x1="0" y1="78.0" x2="0" y2="184.0" gradientUnits="userSpaceOnUse" xlink:type="simple" xlink:actuate="onLoad" xlink:show="other" /><linearGradient xmlns:xlink="http://www.w3.org/1999/xlink" xlink:href="#linearGradientF8FBFEEDF5FCDEEDFAD4E7F8E2E5E9" id="linearGradientF8FBFEEDF5FCDEEDFAD4E7F8E2E5E9_1944464172" x1="0" y1="305.0" x2="0" y2="411.0" gradientUnits="userSpaceOnUse" xlink:type="simple" xlink:actuate="onLoad" xlink:show="other" /><linearGradient xmlns:xlink="http://www.w3.org/1999/xlink" xlink:href="#linearGradientF8FBFEEDF5FCDEEDFAD4E7F8E2E5E9" id="linearGradientF8FBFEEDF5FCDEEDFAD4E7F8E2E5E9_703043164" x1="0" y1="78.0" x2="0" y2="184.0" gradientUnits="userSpaceOnUse" xlink:type="simple" xlink:actuate="onLoad" xlink:show="other" /><linearGradient xmlns:xlink="http://www.w3.org/1999/xlink" xlink:href="#linearGradientFF6666FF9696FFB6B6" id="linearGradientFF6666FF9696FFB6B6_1121966574" x1="0" y1="98.0" x2="0" y2="133.0" gradientUnits="userSpaceOnUse" xlink:type="simple" xlink:actuate="onLoad" xlink:show="other" /><linearGradient id="linearGradientFF6666FF9696FFB6B6"><stop style="stop-color:#FF6666;stop-opacity:1;" offset="0.0" id="stopFF6666" /><stop style="stop-color:#FF9696;stop-opacity:1;" offset="0.5" id="stopFF9696" /><stop style="stop-color:#FFB6B6;stop-opacity:1;" offset="1.0" id="stopFFB6B6" /></linearGradient><linearGradient xmlns:xlink="http://www.w3.org/1999/xlink" xlink:href="#linearGradientF8FBFEEDF5FCDEEDFAD4E7F8E2E5E9" id="linearGradientF8FBFEEDF5FCDEEDFAD4E7F8E2E5E9_1362377250" x1="0" y1="532.0" x2="0" y2="638.0" gradientUnits="userSpaceOnUse" xlink:type="simple" xlink:actuate="onLoad" xlink:show="other" /><linearGradient xmlns:xlink="http://www.w3.org/1999/xlink" xlink:href="#linearGradientFF6666FF9696FFB6B6" id="linearGradientFF6666FF9696FFB6B6_331994211" x1="0" y1="552.0" x2="0" y2="587.0" gradientUnits="userSpaceOnUse" xlink:type="simple" xlink:actuate="onLoad" xlink:show="other" /></defs></svg>
