<?xml version="1.0" encoding="UTF-8"?>
<svg xmlns="http://www.w3.org/2000/svg" style="stroke-dasharray:none; shape-rendering:auto; font-family:'Arial'; text-rendering:auto; fill-opacity:1; color-interpolation:auto; color-rendering:auto; font-size:12; fill:black; stroke:black; image-rendering:auto; stroke-miterlimit:10; stroke-linecap:square; stroke-linejoin:miter; font-style:normal; stroke-width:1; stroke-dashoffset:0; font-weight:normal; stroke-opacity:1;" contentScriptType="text/ecmascript" preserveAspectRatio="xMidYMid meet" zoomAndPan="magnify" version="1.0" contentStyleType="text/css" xml:xlink="http://www.w3.org/1999/xlink" width="1229" height="591"><rect x="10" y="10" width="1171" height="581" ry="0" rx="0" style="stroke:#000000; fill:#FFFFFF" /><rect x="40" y="203" width="1141" height="193" ry="0" rx="0" style="stroke:#000000; fill:#ADC9AC" /><g componentSequence="4"><text x="-299" y="48" transform="rotate(270)" text-anchor="middle" style="font-weight:bold;font-size:10px;stroke:none; fill:#434343"><tspan dy="14" x="-299">Solicitante</tspan></text></g><rect x="40" y="396" width="1141" height="195" ry="0" rx="0" style="stroke:#000000; fill:#82B0B7" /><g componentSequence="3"><text x="-493" y="48" transform="rotate(270)" text-anchor="middle" style="font-weight:bold;font-size:10px;stroke:none; fill:#434343"><tspan dy="14" x="-493">Aprovação</tspan></text></g><rect x="40" y="10" width="1141" height="193" ry="0" rx="0" style="stroke:#000000; fill:#C0C0C0" /><g componentSequence="2"><text x="-106" y="48" transform="rotate(270)" text-anchor="middle" style="font-weight:bold;font-size:10px;stroke:none; fill:#434343"><tspan dy="14" x="-106">Controladoria</tspan></text></g><g componentSequence="1"><text x="-300" y="18" transform="rotate(270)" text-anchor="middle" style="font-weight:bold;font-size:10px;stroke:none; fill:#434343"><tspan dy="14" x="-300">Revisão/Atualização Orçamentária</tspan></text></g><g sequence="4"><ellipse cx="147" cy="90" rx="17" ry="17" stroke-width="1" style="fill:url(#linearGradient66FF6696FF96B6FFB6_64893830);" stroke="336633" /></g><g sequence="5"><rect x="100" y="272" width="106" height="60" ry="5" rx="5" style="fill:url(#linearGradientF8FBFEEDF5FCDEEDFAD4E7F8E2E5E9_219798925);" stroke="191970" /></g><g componentSequence="5"><text x="153" y="291" text-anchor="middle" style="font-weight:bold;font-size:10px;stroke:none; fill:#333399"><tspan dy="14" x="153">Atendimento</tspan></text></g><g sequence="11"><rect x="340" y="60" width="106" height="92" ry="5" rx="5" style="fill:url(#linearGradientF8FBFEEDF5FCDEEDFAD4E7F8E2E5E9_153508086);" stroke="191970" /></g><g componentSequence="11"><text x="393" y="75" text-anchor="middle" style="font-weight:bold;font-size:10px;stroke:none; fill:#333399"><tspan dy="14" x="393">Pendência ao</tspan><tspan dy="14" x="393">Solicitante</tspan></text></g><g sequence="13"><rect x="100" y="458" width="106" height="76" ry="5" rx="5" style="fill:url(#linearGradientF8FBFEEDF5FCDEEDFAD4E7F8E2E5E9_1277482934);" stroke="191970" /></g><g componentSequence="13"><text x="153" y="473" text-anchor="middle" style="font-weight:bold;font-size:10px;stroke:none; fill:#333399"><tspan dy="14" x="153">Aprovação</tspan><tspan dy="14" x="153">Gestor</tspan></text></g><g sequence="15"><rect x="800" y="70" width="106" height="60" ry="5" rx="5" style="fill:url(#linearGradientF8FBFEEDF5FCDEEDFAD4E7F8E2E5E9_1041538999);" stroke="191970" /></g><g componentSequence="15"><text x="853" y="89" text-anchor="middle" style="font-weight:bold;font-size:10px;stroke:none; fill:#333399"><tspan dy="14" x="853">Validação</tspan></text></g><g sequence="17"><rect x="730" y="458" width="106" height="76" ry="5" rx="5" style="fill:url(#linearGradientF8FBFEEDF5FCDEEDFAD4E7F8E2E5E9_2099435597);" stroke="191970" /></g><g componentSequence="17"><text x="783" y="473" text-anchor="middle" style="font-weight:bold;font-size:10px;stroke:none; fill:#333399"><tspan dy="14" x="783">Aprovação</tspan><tspan dy="14" x="783">CEO</tspan></text></g><g sequence="20"><ellipse cx="1127" cy="97" rx="17" ry="17" stroke-width="3" style="fill:url(#linearGradientFF6666FF9696FFB6B6_1190711031);" stroke="993333" /></g><g componentSequence="6"><text x="160" y="190" style="font-size:10px;font-weight:none;stroke:none; fill:#333399" text-anchor="left" /></g><g componentSequence="12"><text x="384" y="311" style="font-size:10px;font-weight:none;stroke:none; fill:#333399" text-anchor="left"><tspan dy="14" x="384">2 - Pendência ao</tspan><tspan dy="14" x="384">Solicitante</tspan></text></g><g componentSequence="14"><text x="163" y="395" style="font-size:10px;font-weight:none;stroke:none; fill:#333399" text-anchor="left"><tspan dy="14" x="163">2 - Aprovação</tspan></text></g><g componentSequence="16"><text x="625" y="311" style="font-size:10px;font-weight:none;stroke:none; fill:#333399" text-anchor="left"><tspan dy="14" x="625">1 - Atendimento</tspan><tspan dy="14" x="625">Realizado</tspan></text></g><g componentSequence="18"><text x="478" y="496" style="font-size:10px;font-weight:none;stroke:none; fill:#333399" text-anchor="left"><tspan dy="14" x="478">2 - Validação CEO</tspan></text></g><g componentSequence="19"><text x="582" y="302" style="font-size:10px;font-weight:none;stroke:none; fill:#333399" text-anchor="left"><tspan dy="14" x="582">1 - Aprovado</tspan></text></g><g componentSequence="21"><text x="1018" y="108" style="font-size:10px;font-weight:none;stroke:none; fill:#333399" text-anchor="left"><tspan dy="14" x="1018">1 - Atendimento</tspan><tspan dy="14" x="1018">Validado</tspan></text></g><g componentSequence="22"><text x="1137" y="451" style="font-size:10px;font-weight:none;stroke:none; fill:#333399" text-anchor="left"><tspan dy="14" x="1137">2 - Reprovado</tspan></text></g><g componentSequence="23"><text x="780" y="30" style="font-size:10px;font-weight:none;stroke:none; fill:#333399" text-anchor="left"><tspan dy="14" x="780">2 - Finalizar demanda</tspan></text></g><g componentSequence="24"><text x="859" y="569" style="font-size:10px;font-weight:none;stroke:none; fill:#333399" text-anchor="left"><tspan dy="14" x="859">3 - Reprovado</tspan></text></g><g componentSequence="25"><text x="163" y="395" style="font-size:10px;font-weight:none;stroke:none; fill:#333399" text-anchor="left"><tspan dy="14" x="163">1 - Aprovado</tspan></text></g><g componentSequence="26"><text x="384" y="311" style="font-size:10px;font-weight:none;stroke:none; fill:#333399" text-anchor="left"><tspan dy="14" x="384">1 - Retornar ao</tspan><tspan dy="14" x="384">Atendimento</tspan></text></g><g componentSequence="27"><text x="625" y="311" style="font-size:10px;font-weight:none;stroke:none; fill:#333399" text-anchor="left"><tspan dy="14" x="625">2 - Retornar ao</tspan><tspan dy="14" x="625">Atendimento</tspan></text></g><g componentSequence="28"><text x="1018" y="98" style="font-size:10px;font-weight:none;stroke:none; fill:#333399" text-anchor="left" /></g><g componentSequence="29"><text x="780" y="31" style="font-size:10px;font-weight:none;stroke:none; fill:#333399" text-anchor="left" /></g><path style="fill:none; stroke:#000000;stroke-width:1" d="M147.0 107.0 L152.0 271.0" /><polygon style="fill:#000000; stroke:#000000;" points=" 157 261 152 271 147 261 152 263" /><path style="fill:none; stroke:#000000;stroke-width:1" d="M206.0 301.0 L392.0 301.0 L392.0 152.0" /><polygon style="fill:#000000; stroke:#000000;" points=" 387 162 392 152 397 162 392 160" /><path style="fill:none; stroke:#000000;stroke-width:1" d="M153.0 332.0 L153.0 457.0" /><polygon style="fill:#000000; stroke:#000000;" points=" 158 447 153 457 148 447 153 449" /><path style="fill:none; stroke:#000000;stroke-width:1" d="M206.0 301.0 L852.0 301.0 L852.0 130.0" /><polygon style="fill:#000000; stroke:#000000;" points=" 847 140 852 130 857 140 852 138" /><path style="fill:none; stroke:#000000;stroke-width:1" d="M782.0 457.0 L782.0 302.0 L206.0 302.0" /><polygon style="fill:#000000; stroke:#000000;" points=" 216 307 206 302 216 297 214 302" /><path style="fill:none; stroke:#000000;stroke-width:1" d="M153.0 457.0 L153.0 332.0" /><polygon style="fill:#000000; stroke:#000000;" points=" 148 342 153 332 158 342 153 340" /><path style="fill:none; stroke:#000000;stroke-width:1" d="M392.0 152.0 L392.0 301.0 L206.0 301.0" /><polygon style="fill:#000000; stroke:#000000;" points=" 216 306 206 301 216 296 214 301" /><path style="fill:none; stroke:#000000;stroke-width:1" d="M852.0 130.0 L852.0 301.0 L572.0 301.0 L206.0 301.0" /><polygon style="fill:#000000; stroke:#000000;" points=" 216 306 206 301 216 296 214 301" /><path style="fill:none; stroke:#000000;stroke-width:1" d="M392.0 59.0 L392.0 30.0 L781.0 30.0 L1127.0 30.0 L1127.0 79.0" /><polygon style="fill:#000000; stroke:#000000;" points=" 1132 69 1127 79 1122 69 1127 71" /><path style="fill:none; stroke:#009600;stroke-width:1" d="M393.0 59.0 L393.0 31.0 L769.0 31.0 L1127.0 31.0 L1127.0 79.0" /><polygon style="fill:#009600; stroke:#009600;" points=" 1132 69 1127 79 1122 69 1127 71" /><path style="fill:none; stroke:#000000;stroke-width:1" d="M206.0 496.0 L729.0 496.0" /><polygon style="fill:#000000; stroke:#000000;" points=" 719 491 729 496 719 501 721 496" /><path style="fill:none; stroke:#000000;stroke-width:1" d="M152.0 534.0 L152.0 569.0 L1127.0 569.0 L1127.0 115.0" /><polygon style="fill:#000000; stroke:#000000;" points=" 1122 125 1127 115 1132 125 1127 123" /><path style="fill:none; stroke:#000000;stroke-width:1" d="M906.0 99.0 L1110.0 97.0" /><polygon style="fill:#000000; stroke:#000000;" points=" 1100 92 1110 97 1100 102 1102 97" /><path style="fill:none; stroke:#009600;stroke-width:1" d="M906.0 99.0 L1110.0 97.0" /><polygon style="fill:#009600; stroke:#009600;" points=" 1100 92 1110 97 1100 102 1102 97" /><path style="fill:none; stroke:#000000;stroke-width:1" d="M836.0 495.0 L1127.0 495.0 L1127.0 115.0" /><polygon style="fill:#000000; stroke:#000000;" points=" 1122 125 1127 115 1132 125 1127 123" /><defs><linearGradient xmlns:xlink="http://www.w3.org/1999/xlink" xlink:href="#linearGradient66FF6696FF96B6FFB6" id="linearGradient66FF6696FF96B6FFB6_64893830" x1="0" y1="73.0" x2="0" y2="108.0" gradientUnits="userSpaceOnUse" xlink:type="simple" xlink:actuate="onLoad" xlink:show="other" /><linearGradient id="linearGradient66FF6696FF96B6FFB6"><stop style="stop-color:#66FF66;stop-opacity:1;" offset="0.0" id="stop66FF66" /><stop style="stop-color:#96FF96;stop-opacity:1;" offset="0.5" id="stop96FF96" /><stop style="stop-color:#B6FFB6;stop-opacity:1;" offset="1.0" id="stopB6FFB6" /></linearGradient><linearGradient xmlns:xlink="http://www.w3.org/1999/xlink" xlink:href="#linearGradientF8FBFEEDF5FCDEEDFAD4E7F8E2E5E9" id="linearGradientF8FBFEEDF5FCDEEDFAD4E7F8E2E5E9_219798925" x1="0" y1="272.0" x2="0" y2="378.0" gradientUnits="userSpaceOnUse" xlink:type="simple" xlink:actuate="onLoad" xlink:show="other" /><linearGradient id="linearGradientF8FBFEEDF5FCDEEDFAD4E7F8E2E5E9"><stop style="stop-color:#F8FBFE;stop-opacity:1;" offset="0.0" id="stopF8FBFE" /><stop style="stop-color:#EDF5FC;stop-opacity:1;" offset="0.25" id="stopEDF5FC" /><stop style="stop-color:#DEEDFA;stop-opacity:1;" offset="0.5" id="stopDEEDFA" /><stop style="stop-color:#D4E7F8;stop-opacity:1;" offset="0.75" id="stopD4E7F8" /><stop style="stop-color:#E2E5E9;stop-opacity:1;" offset="1.0" id="stopE2E5E9" /></linearGradient><linearGradient xmlns:xlink="http://www.w3.org/1999/xlink" xlink:href="#linearGradientF8FBFEEDF5FCDEEDFAD4E7F8E2E5E9" id="linearGradientF8FBFEEDF5FCDEEDFAD4E7F8E2E5E9_153508086" x1="0" y1="60.0" x2="0" y2="166.0" gradientUnits="userSpaceOnUse" xlink:type="simple" xlink:actuate="onLoad" xlink:show="other" /><linearGradient xmlns:xlink="http://www.w3.org/1999/xlink" xlink:href="#linearGradientF8FBFEEDF5FCDEEDFAD4E7F8E2E5E9" id="linearGradientF8FBFEEDF5FCDEEDFAD4E7F8E2E5E9_1277482934" x1="0" y1="458.0" x2="0" y2="564.0" gradientUnits="userSpaceOnUse" xlink:type="simple" xlink:actuate="onLoad" xlink:show="other" /><linearGradient xmlns:xlink="http://www.w3.org/1999/xlink" xlink:href="#linearGradientF8FBFEEDF5FCDEEDFAD4E7F8E2E5E9" id="linearGradientF8FBFEEDF5FCDEEDFAD4E7F8E2E5E9_1041538999" x1="0" y1="70.0" x2="0" y2="176.0" gradientUnits="userSpaceOnUse" xlink:type="simple" xlink:actuate="onLoad" xlink:show="other" /><linearGradient xmlns:xlink="http://www.w3.org/1999/xlink" xlink:href="#linearGradientF8FBFEEDF5FCDEEDFAD4E7F8E2E5E9" id="linearGradientF8FBFEEDF5FCDEEDFAD4E7F8E2E5E9_2099435597" x1="0" y1="458.0" x2="0" y2="564.0" gradientUnits="userSpaceOnUse" xlink:type="simple" xlink:actuate="onLoad" xlink:show="other" /><linearGradient xmlns:xlink="http://www.w3.org/1999/xlink" xlink:href="#linearGradientFF6666FF9696FFB6B6" id="linearGradientFF6666FF9696FFB6B6_1190711031" x1="0" y1="80.0" x2="0" y2="115.0" gradientUnits="userSpaceOnUse" xlink:type="simple" xlink:actuate="onLoad" xlink:show="other" /><linearGradient id="linearGradientFF6666FF9696FFB6B6"><stop style="stop-color:#FF6666;stop-opacity:1;" offset="0.0" id="stopFF6666" /><stop style="stop-color:#FF9696;stop-opacity:1;" offset="0.5" id="stopFF9696" /><stop style="stop-color:#FFB6B6;stop-opacity:1;" offset="1.0" id="stopFFB6B6" /></linearGradient></defs></svg>
