<?xml version="1.0" encoding="UTF-8"?>
<svg xmlns="http://www.w3.org/2000/svg" style="stroke-dasharray:none; shape-rendering:auto; font-family:'Arial'; text-rendering:auto; fill-opacity:1; color-interpolation:auto; color-rendering:auto; font-size:12; fill:black; stroke:black; image-rendering:auto; stroke-miterlimit:10; stroke-linecap:square; stroke-linejoin:miter; font-style:normal; stroke-width:1; stroke-dashoffset:0; font-weight:normal; stroke-opacity:1;" contentScriptType="text/ecmascript" preserveAspectRatio="xMidYMid meet" zoomAndPan="magnify" version="1.0" contentStyleType="text/css" xml:xlink="http://www.w3.org/1999/xlink" width="1650" height="940"><rect x="70" y="20" width="1580" height="920" ry="0" rx="0" style="stroke:#000000; fill:#FFFFFF" /><rect x="100" y="710" width="1550" height="230" ry="0" rx="0" style="stroke:#000000; fill:#D0DAAE" /><g componentSequence="78"><text x="-825" y="108" transform="rotate(270)" text-anchor="middle" style="font-weight:bold;font-size:10px;stroke:none; fill:#434343"><tspan dy="14" x="-825">Aprovação</tspan></text></g><rect x="100" y="250" width="1550" height="230" ry="0" rx="0" style="stroke:#000000; fill:#82B0B7" /><g componentSequence="11"><text x="-365" y="108" transform="rotate(270)" text-anchor="middle" style="font-weight:bold;font-size:10px;stroke:none; fill:#434343"><tspan dy="14" x="-365">Validação</tspan></text></g><rect x="100" y="480" width="1550" height="230" ry="0" rx="0" style="stroke:#000000; fill:#ADC9AC" /><g componentSequence="30"><text x="-595" y="108" transform="rotate(270)" text-anchor="middle" style="font-weight:bold;font-size:10px;stroke:none; fill:#434343"><tspan dy="14" x="-595">Execução</tspan></text></g><rect x="100" y="20" width="1550" height="230" ry="0" rx="0" style="stroke:#000000; fill:#9FC1C6" /><g componentSequence="10"><text x="-135" y="108" transform="rotate(270)" text-anchor="middle" style="font-weight:bold;font-size:10px;stroke:none; fill:#434343"><tspan dy="14" x="-135">Início e Pendência</tspan></text></g><g componentSequence="77"><text x="-480" y="78" transform="rotate(270)" text-anchor="middle" style="font-weight:bold;font-size:10px;stroke:none; fill:#434343"><tspan dy="14" x="-480">Solicitação de Suporte Técnico</tspan></text></g><g sequence="1"><ellipse cx="147" cy="107" rx="17" ry="17" stroke-width="1" style="fill:url(#linearGradient66FF6696FF96B6FFB6_1497204131);" stroke="336633" /></g><g sequence="2"><rect x="170" y="320" width="106" height="60" ry="5" rx="5" style="fill:url(#linearGradientF8FBFEEDF5FCDEEDFAD4E7F8E2E5E9_1476026612);" stroke="191970" /></g><g componentSequence="2"><text x="223" y="339" text-anchor="middle" style="font-weight:bold;font-size:10px;stroke:none; fill:#333399"><tspan dy="14" x="223">Triagem</tspan></text></g><g sequence="8"><ellipse cx="1587" cy="563" rx="17" ry="17" stroke-width="3" style="fill:url(#linearGradientFF6666FF9696FFB6B6_1405480659);" stroke="993333" /></g><g sequence="13"><rect x="700" y="110" width="106" height="76" ry="5" rx="5" style="fill:url(#linearGradientF8FBFEEDF5FCDEEDFAD4E7F8E2E5E9_382167759);" stroke="191970" /></g><g componentSequence="13"><text x="753" y="125" text-anchor="middle" style="font-weight:bold;font-size:10px;stroke:none; fill:#333399"><tspan dy="14" x="753">Pendencia ao</tspan><tspan dy="14" x="753">solicitante</tspan></text></g><g sequence="22"><rect x="1230" y="530" width="106" height="60" ry="5" rx="5" style="fill:url(#linearGradientF8FBFEEDF5FCDEEDFAD4E7F8E2E5E9_602072361);" stroke="191970" /></g><g componentSequence="22"><text x="1283" y="549" text-anchor="middle" style="font-weight:bold;font-size:10px;stroke:none; fill:#333399"><tspan dy="14" x="1283">Validação</tspan></text></g><g sequence="25"><rect x="170" y="798" width="106" height="60" ry="5" rx="5" style="fill:url(#linearGradientF8FBFEEDF5FCDEEDFAD4E7F8E2E5E9_664525921);" stroke="191970" /></g><g componentSequence="25"><text x="223" y="817" text-anchor="middle" style="font-weight:bold;font-size:10px;stroke:none; fill:#333399"><tspan dy="14" x="223">Autorização</tspan></text></g><g sequence="27"><ellipse cx="637" cy="827" rx="17" ry="17" stroke-width="3" style="fill:url(#linearGradientFF6666FF9696FFB6B6_1532235063);" stroke="993333" /></g><g sequence="34"><rect x="520" y="310" width="106" height="76" ry="5" rx="5" style="fill:url(#linearGradientF8FBFEEDF5FCDEEDFAD4E7F8E2E5E9_1994954112);" stroke="191970" /></g><g componentSequence="34"><text x="573" y="325" text-anchor="middle" style="font-weight:bold;font-size:10px;stroke:none; fill:#333399"><tspan dy="14" x="573">Suporte</tspan><tspan dy="14" x="573">Interno</tspan></text></g><g sequence="36"><rect x="520" y="400" width="106" height="76" ry="5" rx="5" style="fill:url(#linearGradientF8FBFEEDF5FCDEEDFAD4E7F8E2E5E9_1108864473);" stroke="191970" /></g><g componentSequence="36"><text x="573" y="415" text-anchor="middle" style="font-weight:bold;font-size:10px;stroke:none; fill:#333399"><tspan dy="14" x="573">Suporte</tspan><tspan dy="14" x="573">TiCerto</tspan></text></g><g sequence="49"><ellipse cx="1587" cy="617" rx="17" ry="17" stroke-width="3" style="fill:url(#linearGradientFF6666FF9696FFB6B6_991320366);" stroke="993333" /></g><g sequence="51"><ellipse cx="1057" cy="147" rx="17" ry="17" stroke-width="3" style="fill:url(#linearGradientFF6666FF9696FFB6B6_1079035598);" stroke="993333" /></g><g sequence="68"><rect x="340" y="310" width="106" height="76" ry="5" rx="5" style="fill:url(#linearGradientF8FBFEEDF5FCDEEDFAD4E7F8E2E5E9_1923485649);" stroke="191970" /></g><g componentSequence="68"><text x="393" y="325" text-anchor="middle" style="font-weight:bold;font-size:10px;stroke:none; fill:#333399"><tspan dy="14" x="393">Erro de</tspan><tspan dy="14" x="393">PRODUTO</tspan></text></g><g componentSequence="24"><text x="1390" y="540" style="font-size:10px;font-weight:none;stroke:none; fill:#333399" text-anchor="left"><tspan dy="14" x="1390">Atendimento finalizado</tspan></text></g><g componentSequence="28"><text x="420" y="827" style="font-size:10px;font-weight:none;stroke:none; fill:#333399" text-anchor="left"><tspan dy="14" x="420">Não Autorizado</tspan></text></g><g componentSequence="31"><text x="157" y="248" style="font-size:10px;font-weight:none;stroke:none; fill:#333399" text-anchor="left" /></g><g componentSequence="35"><text x="377" y="276" style="font-size:10px;font-weight:none;stroke:none; fill:#333399" text-anchor="left" /></g><g componentSequence="37"><text x="360" y="436" style="font-size:10px;font-weight:none;stroke:none; fill:#333399" text-anchor="left" /></g><g componentSequence="44"><text x="763" y="375" style="font-size:10px;font-weight:none;stroke:none; fill:#333399" text-anchor="left" /></g><g componentSequence="50"><text x="1375" y="620" style="font-size:10px;font-weight:none;stroke:none; fill:#333399" text-anchor="left"><tspan dy="14" x="1375">Atendimento finalizado.</tspan></text></g><g componentSequence="52"><text x="933" y="147" style="font-size:10px;font-weight:none;stroke:none; fill:#333399" text-anchor="left" /></g><g componentSequence="60"><text x="384" y="148" style="font-size:10px;font-weight:none;stroke:none; fill:#333399" text-anchor="left" /></g><g componentSequence="61"><text x="388" y="152" style="font-size:10px;font-weight:none;stroke:none; fill:#333399" text-anchor="left" /></g><g componentSequence="62"><text x="233" y="589" style="font-size:10px;font-weight:none;stroke:none; fill:#333399" text-anchor="left" /></g><g componentSequence="63"><text x="233" y="589" style="font-size:10px;font-weight:none;stroke:none; fill:#333399" text-anchor="left"><tspan dy="14" x="233">Aprovado</tspan></text></g><g componentSequence="65"><text x="1054" y="348" style="font-size:10px;font-weight:none;stroke:none; fill:#333399" text-anchor="left" /></g><g componentSequence="66"><text x="870" y="558" style="font-size:10px;font-weight:none;stroke:none; fill:#333399" text-anchor="left" /></g><g componentSequence="67"><text x="646" y="556" style="font-size:10px;font-weight:none;stroke:none; fill:#333399" text-anchor="left" /></g><g componentSequence="72"><text x="493" y="348" style="font-size:10px;font-weight:none;stroke:none; fill:#333399" text-anchor="left" /></g><g componentSequence="73"><text x="493" y="348" style="font-size:10px;font-weight:none;stroke:none; fill:#333399" text-anchor="left" /></g><g componentSequence="76"><text x="582" y="165" style="font-size:10px;font-weight:none;stroke:none; fill:#333399" text-anchor="left" /></g><path style="fill:none; stroke:#000000;stroke-width:1" d="M147.0 125.0 L147.0 349.0 L167.0 349.0 L169.0 349.0 L169.0 349.0" /><polygon style="fill:#000000; stroke:#000000;" points=" 159 344 169 349 159 354 161 349" /><path style="fill:none; stroke:#000000;stroke-width:1" d="M234.0 319.0 L250.0 276.0 L437.0 276.0 L519.0 319.0" /><polygon style="fill:#000000; stroke:#000000;" points=" 512 310 519 319 508 319 512 315" /><path style="fill:none; stroke:#000000;stroke-width:1" d="M236.0 380.0 L236.0 380.0 L236.0 380.0 L236.0 380.0 L236.0 388.0 L236.0 436.0 L519.0 437.0" /><polygon style="fill:#000000; stroke:#000000;" points=" 509 432 519 437 509 442 511 437" /><path style="fill:none; stroke:#000000;stroke-width:1" d="M222.0 319.0 L220.0 148.0 L699.0 148.0" /><polygon style="fill:#000000; stroke:#000000;" points=" 689 143 699 148 689 153 691 148" /><path style="fill:none; stroke:#000000;stroke-width:1" d="M223.0 380.0 L223.0 797.0" /><polygon style="fill:#000000; stroke:#000000;" points=" 228 787 223 797 218 787 223 789" /><path style="fill:none; stroke:#000000;stroke-width:1" d="M699.0 148.0 L221.0 154.0 L222.0 319.0" /><polygon style="fill:#000000; stroke:#000000;" points=" 227 309 222 319 217 309 222 311" /><path style="fill:none; stroke:#000000;stroke-width:1" d="M223.0 797.0 L223.0 380.0" /><polygon style="fill:#000000; stroke:#000000;" points=" 218 390 223 380 228 390 223 388" /><path style="fill:none; stroke:#000000;stroke-width:1" d="M1229.0 559.0 L725.0 556.0 L220.0 557.0 L222.0 380.0" /><polygon style="fill:#000000; stroke:#000000;" points=" 217 390 222 380 227 390 222 388" /><path style="fill:none; stroke:#009600;stroke-width:1" d="M1336.0 560.0 L1570.0 563.0" /><polygon style="fill:#009600; stroke:#009600;" points=" 1560 558 1570 563 1560 568 1562 563" /><path style="fill:none; stroke:#000000;stroke-width:1" d="M806.0 147.0 L1040.0 147.0" /><polygon style="fill:#000000; stroke:#000000;" points=" 1030 142 1040 147 1030 152 1032 147" /><path style="fill:none; stroke:#000000;stroke-width:1" d="M626.0 437.0 L753.0 436.0 L753.0 186.0" /><polygon style="fill:#000000; stroke:#000000;" points=" 748 196 753 186 758 196 753 194" /><path style="fill:none; stroke:#000000;stroke-width:1" d="M572.0 309.0 L572.0 148.0 L699.0 148.0" /><polygon style="fill:#000000; stroke:#000000;" points=" 689 143 699 148 689 153 691 148" /><path style="fill:none; stroke:#000000;stroke-width:1" d="M1281.0 590.0 L1280.0 616.0 L1570.0 617.0" /><polygon style="fill:#000000; stroke:#000000;" points=" 1560 612 1570 617 1560 622 1562 617" /><path style="fill:none; stroke:#000000;stroke-width:1" d="M626.0 348.0 L1280.0 348.0 L1282.0 529.0" /><polygon style="fill:#000000; stroke:#000000;" points=" 1287 519 1282 529 1277 519 1282 521" /><path style="fill:none; stroke:#000000;stroke-width:1" d="M572.0 476.0 L572.0 557.0 L1229.0 559.0" /><polygon style="fill:#000000; stroke:#000000;" points=" 1219 554 1229 559 1219 564 1221 559" /><path style="fill:none; stroke:#000000;stroke-width:1" d="M276.0 827.0 L620.0 827.0" /><polygon style="fill:#000000; stroke:#000000;" points=" 610 822 620 827 610 832 612 827" /><polygon style="fill:#000000; stroke:#000000;" points=" 281 822 291 832" /><path style="fill:none; stroke:#000000;stroke-width:1" d="M519.0 348.0 L446.0 348.0" /><polygon style="fill:#000000; stroke:#000000;" points=" 456 353 446 348 456 343 454 348" /><path style="fill:none; stroke:#000000;stroke-width:1" d="M446.0 348.0 L519.0 348.0" /><polygon style="fill:#000000; stroke:#000000;" points=" 509 343 519 348 509 353 511 348" /><defs><linearGradient xmlns:xlink="http://www.w3.org/1999/xlink" xlink:href="#linearGradient66FF6696FF96B6FFB6" id="linearGradient66FF6696FF96B6FFB6_1497204131" x1="0" y1="90.0" x2="0" y2="125.0" gradientUnits="userSpaceOnUse" xlink:type="simple" xlink:actuate="onLoad" xlink:show="other" /><linearGradient id="linearGradient66FF6696FF96B6FFB6"><stop style="stop-color:#66FF66;stop-opacity:1;" offset="0.0" id="stop66FF66" /><stop style="stop-color:#96FF96;stop-opacity:1;" offset="0.5" id="stop96FF96" /><stop style="stop-color:#B6FFB6;stop-opacity:1;" offset="1.0" id="stopB6FFB6" /></linearGradient><linearGradient xmlns:xlink="http://www.w3.org/1999/xlink" xlink:href="#linearGradientF8FBFEEDF5FCDEEDFAD4E7F8E2E5E9" id="linearGradientF8FBFEEDF5FCDEEDFAD4E7F8E2E5E9_1476026612" x1="0" y1="320.0" x2="0" y2="426.0" gradientUnits="userSpaceOnUse" xlink:type="simple" xlink:actuate="onLoad" xlink:show="other" /><linearGradient id="linearGradientF8FBFEEDF5FCDEEDFAD4E7F8E2E5E9"><stop style="stop-color:#F8FBFE;stop-opacity:1;" offset="0.0" id="stopF8FBFE" /><stop style="stop-color:#EDF5FC;stop-opacity:1;" offset="0.25" id="stopEDF5FC" /><stop style="stop-color:#DEEDFA;stop-opacity:1;" offset="0.5" id="stopDEEDFA" /><stop style="stop-color:#D4E7F8;stop-opacity:1;" offset="0.75" id="stopD4E7F8" /><stop style="stop-color:#E2E5E9;stop-opacity:1;" offset="1.0" id="stopE2E5E9" /></linearGradient><linearGradient xmlns:xlink="http://www.w3.org/1999/xlink" xlink:href="#linearGradientFF6666FF9696FFB6B6" id="linearGradientFF6666FF9696FFB6B6_1405480659" x1="0" y1="546.0" x2="0" y2="581.0" gradientUnits="userSpaceOnUse" xlink:type="simple" xlink:actuate="onLoad" xlink:show="other" /><linearGradient id="linearGradientFF6666FF9696FFB6B6"><stop style="stop-color:#FF6666;stop-opacity:1;" offset="0.0" id="stopFF6666" /><stop style="stop-color:#FF9696;stop-opacity:1;" offset="0.5" id="stopFF9696" /><stop style="stop-color:#FFB6B6;stop-opacity:1;" offset="1.0" id="stopFFB6B6" /></linearGradient><linearGradient xmlns:xlink="http://www.w3.org/1999/xlink" xlink:href="#linearGradientF8FBFEEDF5FCDEEDFAD4E7F8E2E5E9" id="linearGradientF8FBFEEDF5FCDEEDFAD4E7F8E2E5E9_382167759" x1="0" y1="110.0" x2="0" y2="216.0" gradientUnits="userSpaceOnUse" xlink:type="simple" xlink:actuate="onLoad" xlink:show="other" /><linearGradient xmlns:xlink="http://www.w3.org/1999/xlink" xlink:href="#linearGradientF8FBFEEDF5FCDEEDFAD4E7F8E2E5E9" id="linearGradientF8FBFEEDF5FCDEEDFAD4E7F8E2E5E9_602072361" x1="0" y1="530.0" x2="0" y2="636.0" gradientUnits="userSpaceOnUse" xlink:type="simple" xlink:actuate="onLoad" xlink:show="other" /><linearGradient xmlns:xlink="http://www.w3.org/1999/xlink" xlink:href="#linearGradientF8FBFEEDF5FCDEEDFAD4E7F8E2E5E9" id="linearGradientF8FBFEEDF5FCDEEDFAD4E7F8E2E5E9_664525921" x1="0" y1="798.0" x2="0" y2="904.0" gradientUnits="userSpaceOnUse" xlink:type="simple" xlink:actuate="onLoad" xlink:show="other" /><linearGradient xmlns:xlink="http://www.w3.org/1999/xlink" xlink:href="#linearGradientFF6666FF9696FFB6B6" id="linearGradientFF6666FF9696FFB6B6_1532235063" x1="0" y1="810.0" x2="0" y2="845.0" gradientUnits="userSpaceOnUse" xlink:type="simple" xlink:actuate="onLoad" xlink:show="other" /><linearGradient xmlns:xlink="http://www.w3.org/1999/xlink" xlink:href="#linearGradientF8FBFEEDF5FCDEEDFAD4E7F8E2E5E9" id="linearGradientF8FBFEEDF5FCDEEDFAD4E7F8E2E5E9_1994954112" x1="0" y1="310.0" x2="0" y2="416.0" gradientUnits="userSpaceOnUse" xlink:type="simple" xlink:actuate="onLoad" xlink:show="other" /><linearGradient xmlns:xlink="http://www.w3.org/1999/xlink" xlink:href="#linearGradientF8FBFEEDF5FCDEEDFAD4E7F8E2E5E9" id="linearGradientF8FBFEEDF5FCDEEDFAD4E7F8E2E5E9_1108864473" x1="0" y1="400.0" x2="0" y2="506.0" gradientUnits="userSpaceOnUse" xlink:type="simple" xlink:actuate="onLoad" xlink:show="other" /><linearGradient xmlns:xlink="http://www.w3.org/1999/xlink" xlink:href="#linearGradientFF6666FF9696FFB6B6" id="linearGradientFF6666FF9696FFB6B6_991320366" x1="0" y1="600.0" x2="0" y2="635.0" gradientUnits="userSpaceOnUse" xlink:type="simple" xlink:actuate="onLoad" xlink:show="other" /><linearGradient xmlns:xlink="http://www.w3.org/1999/xlink" xlink:href="#linearGradientFF6666FF9696FFB6B6" id="linearGradientFF6666FF9696FFB6B6_1079035598" x1="0" y1="130.0" x2="0" y2="165.0" gradientUnits="userSpaceOnUse" xlink:type="simple" xlink:actuate="onLoad" xlink:show="other" /><linearGradient xmlns:xlink="http://www.w3.org/1999/xlink" xlink:href="#linearGradientF8FBFEEDF5FCDEEDFAD4E7F8E2E5E9" id="linearGradientF8FBFEEDF5FCDEEDFAD4E7F8E2E5E9_1923485649" x1="0" y1="310.0" x2="0" y2="416.0" gradientUnits="userSpaceOnUse" xlink:type="simple" xlink:actuate="onLoad" xlink:show="other" /></defs></svg>
